<?xml version="1.0" encoding="utf-8"?>
<!-- Generator: Adobe Illustrator 22.0.0, SVG Export Plug-In . SVG Version: 6.00 Build 0)  -->
<svg version="1.1" id="BANNER" xmlns="http://www.w3.org/2000/svg" xmlns:xlink="http://www.w3.org/1999/xlink" x="0px" y="0px"
	 viewBox="0 0 400 90" style="enable-background:new 0 0 400 90;" xml:space="preserve">
<style type="text/css">
	.st0{fill:#F48120;}
	.st1{fill:#EF4E23;}
	.st2{fill:#005499;}
	.st3{fill:none;stroke:#FFFFFF;stroke-width:3;stroke-miterlimit:10;}
	.st4{fill:#FFFFFF;}
</style>
<g>
	<g>
		<g>
			<path class="st0" d="M79.7,80.8c-2.8,0-5.4-0.4-7.8-1.2c-2.4-0.8-4.3-2-5.7-3.5c-1.4-1.5-2.1-3.3-2.1-5.4c0-1.9,0.6-3.6,1.7-4.9
				c1.1-1.3,2.4-2.3,3.9-3c-1-0.4-1.8-1-2.4-1.8c-0.6-0.7-0.9-1.8-0.9-3.1c0-1.4,0.3-2.5,1-3.3c0.7-0.8,1.6-1.6,2.6-2.3
				c-1.4-1.1-2.4-2.4-3.2-4c-0.8-1.6-1.1-3.3-1.1-5.2v-2c0-2.3,0.6-4.4,1.7-6.2c1.1-1.8,2.7-3.2,4.8-4.2c2.1-1,4.4-1.5,7.1-1.5
				c1.7,0,3.2,0.2,4.6,0.7c1.4,0.4,2.7,1,3.8,1.8c0.8-1.8,1.6-3.1,2.4-3.8c0.8-0.7,1.6-1.1,2.3-1.1c1,0,1.8,0.3,2.3,0.9
				c0.5,0.6,0.8,1.2,0.8,1.8c0,0.4-0.1,0.7-0.3,1.1c-0.2,0.3-0.5,0.6-0.9,0.8c-0.5,0.2-1.1,0.6-1.7,1c-0.7,0.4-1.3,1.1-1.9,1.9
				c0.8,0.9,1.4,2,1.8,3.2c0.4,1.2,0.6,2.5,0.6,3.8v2c0,2.3-0.6,4.4-1.8,6.2c-1.2,1.8-2.8,3.3-4.9,4.3c-2.1,1-4.5,1.6-7.2,1.6
				c-1.9,0-3.6-0.3-5-0.9c-0.4,0.2-0.7,0.5-1,0.8c-0.3,0.3-0.4,0.7-0.4,1.2c0,0.9,0.5,1.5,1.6,1.9c1.1,0.4,2.4,0.7,4.1,0.9
				c1.7,0.2,3.5,0.4,5.4,0.7c1.9,0.3,3.7,0.8,5.4,1.4c1.7,0.7,3.1,1.6,4.1,2.9c1.1,1.3,1.6,3.1,1.6,5.3c0,2.5-0.7,4.6-2.1,6.2
				c-1.4,1.6-3.3,2.8-5.6,3.6C85,80.4,82.4,80.8,79.7,80.8z M79.5,75.7c2.4,0,4.3-0.5,5.8-1.6c1.5-1,2.2-2.4,2.2-4.1
				c0-1.2-0.4-2.2-1.1-2.8c-0.7-0.7-1.7-1.2-2.8-1.5c-1.2-0.3-2.4-0.6-3.7-0.7c-1.3-0.1-2.5-0.3-3.7-0.4c-1.4,0.5-2.5,1.2-3.5,2.1
				c-0.9,0.9-1.4,2-1.4,3.4c0,1.8,0.8,3.2,2.3,4.2C75.2,75.2,77.1,75.7,79.5,75.7z M79.4,50.6c1.9,0,3.5-0.7,4.6-2
				c1.1-1.4,1.6-3.1,1.6-5.2v-2c0-2-0.5-3.7-1.6-5c-1.1-1.4-2.6-2-4.6-2c-2,0-3.5,0.7-4.6,2c-1.1,1.4-1.6,3-1.6,5v2
				c0,2,0.5,3.8,1.6,5.2C75.8,49.9,77.3,50.6,79.4,50.6z"/>
			<path class="st0" d="M114,65c-2.6,0-5.1-0.7-7.4-2c-2.3-1.4-4.1-3.2-5.5-5.4c-1.4-2.2-2.1-4.6-2.1-7.1v-6.7c0-2.6,0.7-5,2-7.2
				c1.3-2.2,3.2-3.9,5.5-5.3c2.3-1.3,4.8-2,7.6-2c2.7,0,5.2,0.6,7.5,1.9c2.3,1.3,4.1,3,5.5,5.2c1.4,2.2,2.1,4.6,2.1,7.3v6.7
				c0,2.5-0.7,4.8-2.1,7.1c-1.4,2.2-3.2,4-5.5,5.4C119.3,64.3,116.8,65,114,65z M114.1,58.2c1.4,0,2.6-0.4,3.7-1.1
				c1.1-0.7,2-1.7,2.7-2.9c0.7-1.2,1-2.4,1-3.8v-6.7c0-1.3-0.3-2.5-1-3.6c-0.7-1.2-1.6-2.1-2.7-2.8c-1.1-0.7-2.4-1.1-3.7-1.1
				c-1.4,0-2.7,0.4-3.8,1.1c-1.1,0.7-2,1.7-2.6,2.8s-1,2.4-1,3.6v6.7c0,1.3,0.3,2.6,1,3.8c0.7,1.2,1.5,2.2,2.7,2.9
				C111.5,57.8,112.8,58.2,114.1,58.2z"/>
			<path class="st0" d="M148.5,64.4c-4.1,0-7.3-0.9-9.5-2.7c-2.2-1.8-3.3-4.7-3.3-8.7V16.4c0-0.7,0.4-1.3,1.2-1.8
				c0.8-0.5,1.7-0.7,2.6-0.7c0.9,0,1.8,0.2,2.6,0.7c0.8,0.5,1.2,1.1,1.2,1.8v13.4h8.9c0.7,0,1.2,0.3,1.6,0.9c0.4,0.6,0.5,1.2,0.5,2
				c0,0.7-0.2,1.4-0.5,2c-0.4,0.6-0.9,0.9-1.6,0.9h-8.9V53c0,1.8,0.4,3,1.1,3.7c0.8,0.7,2.1,1.1,4,1.1h2.5c1.1,0,2,0.3,2.5,1
				c0.6,0.7,0.8,1.4,0.8,2.3c0,0.8-0.3,1.6-0.8,2.3c-0.6,0.7-1.4,1-2.5,1H148.5z"/>
			<path class="st0" d="M172.7,65c-2.6,0-5.1-0.7-7.4-2c-2.3-1.4-4.1-3.2-5.5-5.4c-1.4-2.2-2.1-4.6-2.1-7.1v-6.7c0-2.6,0.7-5,2-7.2
				c1.3-2.2,3.2-3.9,5.5-5.3c2.3-1.3,4.8-2,7.6-2c2.7,0,5.2,0.6,7.5,1.9c2.3,1.3,4.1,3,5.5,5.2c1.4,2.2,2.1,4.6,2.1,7.3v6.7
				c0,2.5-0.7,4.8-2.1,7.1c-1.4,2.2-3.2,4-5.5,5.4C178,64.3,175.5,65,172.7,65z M172.8,58.2c1.4,0,2.6-0.4,3.7-1.1
				c1.1-0.7,2-1.7,2.7-2.9c0.7-1.2,1-2.4,1-3.8v-6.7c0-1.3-0.3-2.5-1-3.6c-0.7-1.2-1.6-2.1-2.7-2.8c-1.1-0.7-2.4-1.1-3.7-1.1
				c-1.4,0-2.7,0.4-3.8,1.1c-1.1,0.7-2,1.7-2.6,2.8c-0.7,1.2-1,2.4-1,3.6v6.7c0,1.3,0.3,2.6,1,3.8c0.7,1.2,1.5,2.2,2.7,2.9
				C170.2,57.8,171.4,58.2,172.8,58.2z"/>
			<path class="st2" d="M205.1,65c-2.4,0-4.5-0.3-6.4-0.9c-1.9-0.6-3.4-1.3-4.5-2.2c-1.1-0.9-1.6-1.8-1.6-2.7c0-0.4,0.1-0.9,0.3-1.5
				c0.2-0.5,0.5-1,0.9-1.4c0.4-0.4,0.9-0.6,1.4-0.6c0.6,0,1.3,0.3,2,0.8c0.7,0.6,1.6,1.1,2.8,1.7c1.2,0.6,2.8,0.8,4.9,0.8
				c2.4,0,4.1-0.4,4.9-1.2c0.9-0.8,1.3-1.7,1.3-2.7c0-1.3-0.4-2.3-1.3-3c-0.9-0.7-1.9-1.3-3.3-1.7c-1.3-0.4-2.8-0.9-4.3-1.3
				c-1.5-0.4-2.9-1-4.3-1.6c-1.3-0.7-2.4-1.6-3.3-2.8c-0.9-1.2-1.3-2.8-1.3-4.8c0-1.7,0.4-3.3,1.2-4.9c0.8-1.6,2.2-3,4-4
				c1.8-1,4.3-1.6,7.3-1.6c1.8,0,3.6,0.2,5.3,0.6c1.7,0.4,3,0.9,4.1,1.6c1.1,0.7,1.6,1.4,1.6,2.2c0,0.3-0.1,0.8-0.4,1.4
				c-0.2,0.6-0.6,1.1-1,1.6c-0.4,0.5-0.9,0.7-1.6,0.7c-0.5,0-1.1-0.2-1.8-0.5c-0.7-0.4-1.6-0.7-2.6-1.1c-1-0.3-2.2-0.5-3.6-0.5
				c-1.4,0-2.5,0.2-3.4,0.7c-0.9,0.5-1.5,1-1.9,1.6c-0.4,0.6-0.6,1.3-0.6,1.9c0,1.1,0.4,1.9,1.2,2.5c0.8,0.6,1.9,1.1,3.3,1.5
				c1.4,0.4,2.8,0.8,4.3,1.2c1.5,0.4,2.9,1,4.3,1.8c1.3,0.8,2.4,1.8,3.3,3.1c0.9,1.3,1.3,3.1,1.3,5.3c0,3.1-1.1,5.5-3.3,7.4
				C212.4,64,209.2,65,205.1,65z"/>
			<path class="st2" d="M231.7,65c-2.7,0-5-0.8-6.9-2.4c-1.9-1.6-2.8-4-2.8-7.3c0-2.8,0.7-4.9,2.2-6.4c1.5-1.5,3.5-2.6,6-3.1
				c2.6-0.6,5.5-0.9,8.9-0.9h3.2v-1.3c0-1.3-0.2-2.5-0.7-3.7c-0.5-1.2-1.2-2.2-2.3-3c-1-0.8-2.5-1.2-4.3-1.2c-1.8,0-3.2,0.2-4.2,0.5
				c-1,0.3-1.8,0.7-2.3,1.1c-0.6,0.4-1.1,0.6-1.6,0.6c-0.9,0-1.6-0.4-2-1.3c-0.5-0.9-0.7-1.7-0.7-2.6s0.6-1.7,1.7-2.4
				c1.1-0.7,2.6-1.3,4.3-1.7c1.7-0.4,3.4-0.6,5-0.6c3.6,0,6.5,0.7,8.6,2c2.1,1.3,3.7,3.1,4.7,5.2c1,2.1,1.5,4.5,1.5,6.9v18.3
				c0,0.7-0.4,1.3-1.1,1.8c-0.7,0.5-1.6,0.8-2.7,0.8c-1,0-1.8-0.3-2.5-0.8c-0.7-0.5-1-1.1-1-1.8v-2.6c-1.3,1.5-2.8,2.8-4.6,3.9
				C236.3,64.4,234.2,65,231.7,65z M234.5,59.1c1.2,0,2.4-0.4,3.6-1.1c1.2-0.7,2.2-1.7,3-2.8c0.8-1.1,1.2-2.3,1.2-3.4v-2.7h-1.8
				c-1.8,0-3.6,0.1-5.3,0.3c-1.7,0.2-3,0.7-4,1.5c-1,0.8-1.5,1.9-1.5,3.5c0,1.7,0.4,2.9,1.4,3.6C232,58.7,233.1,59.1,234.5,59.1z"/>
			<path class="st2" d="M261.5,64.4c-1.1,0-2-0.3-2.7-0.8c-0.7-0.5-1.1-1.1-1.1-1.8V32.3c0-0.7,0.4-1.3,1.1-1.8
				c0.7-0.5,1.6-0.7,2.7-0.7c0.9,0,1.7,0.2,2.4,0.7c0.7,0.5,1,1.1,1,1.8v2.6c0.8-1.4,2-2.7,3.6-3.8c1.6-1.1,3.6-1.7,6.1-1.7
				c2.2,0,4.1,0.7,5.8,2c1.7,1.4,2.9,3.1,3.8,5.3c1.3-2.5,2.9-4.3,4.9-5.5c2-1.2,4-1.8,6.1-1.8c2.2,0,4.2,0.6,6.2,1.7
				c1.9,1.1,3.5,2.8,4.7,4.9c1.2,2.1,1.8,4.7,1.8,7.8v18.1c0,0.6-0.4,1.2-1.1,1.8c-0.8,0.5-1.7,0.8-2.7,0.8c-1,0-1.9-0.3-2.7-0.8
				c-0.8-0.5-1.1-1.1-1.1-1.8V43.7c0-1.7-0.3-3.1-1-4.2c-0.7-1.1-1.5-2-2.6-2.6c-1-0.6-2.1-0.9-3.2-0.9c-1.2,0-2.3,0.3-3.3,0.9
				c-1,0.6-1.9,1.5-2.6,2.6c-0.7,1.1-1,2.4-1,4.1v18.3c0,0.9-0.4,1.5-1.2,1.9c-0.8,0.4-1.7,0.6-2.7,0.6c-0.9,0-1.7-0.2-2.6-0.6
				c-0.8-0.4-1.2-1-1.2-1.9V43.6c0-1.6-0.3-2.9-0.9-4c-0.6-1.1-1.5-2-2.5-2.6c-1-0.6-2.1-0.9-3.4-0.9c-1.1,0-2.2,0.3-3.2,0.9
				c-1,0.6-1.9,1.4-2.6,2.6c-0.7,1.1-1,2.5-1,4.2v18.1c0,0.6-0.4,1.2-1.1,1.8C263.5,64.1,262.6,64.4,261.5,64.4z"/>
			<path class="st2" d="M319.5,80.8c-1.1,0-2-0.3-2.7-0.8c-0.7-0.5-1.1-1.1-1.1-1.8v-46c0-0.7,0.4-1.3,1.1-1.8
				c0.7-0.5,1.6-0.7,2.6-0.7c1,0,1.9,0.2,2.6,0.7c0.7,0.5,1,1.1,1,1.8v2.6c0.8-1.4,2.1-2.7,3.8-3.8c1.7-1.1,3.7-1.7,6-1.7
				c2.4,0,4.6,0.6,6.6,1.9c2,1.3,3.6,3,4.7,5.2c1.2,2.2,1.8,4.6,1.8,7.3v6.7c0,2.5-0.6,4.9-1.8,7.1c-1.2,2.2-2.8,4-4.7,5.4
				c-1.9,1.4-4.1,2-6.4,2c-2.2,0-4.2-0.6-5.9-1.7c-1.8-1.1-3-2.5-3.7-4v19c0,0.6-0.4,1.2-1.1,1.8C321.5,80.5,320.6,80.8,319.5,80.8z
				 M330.8,58.2c1.3,0,2.5-0.4,3.6-1.1c1.1-0.7,2-1.7,2.7-2.9c0.7-1.2,1.1-2.5,1.1-3.7v-6.7c0-1.3-0.3-2.5-1-3.6
				c-0.7-1.2-1.6-2.1-2.7-2.8c-1.1-0.7-2.4-1.1-3.8-1.1c-1.2,0-2.3,0.3-3.4,0.9c-1.1,0.6-2,1.5-2.7,2.6c-0.7,1.1-1.1,2.5-1.1,4.1
				v8.4c0,0.6,0.3,1.4,0.9,2.3c0.6,0.9,1.5,1.8,2.6,2.6C328.1,57.8,329.4,58.2,330.8,58.2z"/>
			<path class="st2" d="M357.1,64.4c-1.1,0-2-0.3-2.7-0.8c-0.7-0.5-1.1-1.1-1.1-1.8V11.7c0-0.7,0.4-1.3,1.1-1.8
				c0.7-0.5,1.6-0.7,2.7-0.7c1.1,0,2,0.2,2.7,0.7c0.8,0.5,1.1,1.1,1.1,1.8v50.2c0,0.6-0.4,1.2-1.1,1.8
				C359,64.1,358.1,64.4,357.1,64.4z"/>
			<path class="st2" d="M385.2,65c-3.3,0-6.2-0.6-8.8-1.8c-2.5-1.2-4.5-2.9-6-5.1c-1.5-2.2-2.2-4.7-2.2-7.6v-6.9
				c0-2.6,0.7-4.9,2.1-7.1c1.4-2.1,3.2-3.9,5.5-5.1c2.3-1.3,4.8-1.9,7.6-1.9c2.6,0,5,0.6,7.2,1.7c2.2,1.1,4,2.7,5.3,4.8
				c1.3,2,2,4.4,2,7c0,2-0.3,3.5-0.9,4.4c-0.6,0.9-1.5,1.4-2.5,1.6c-1,0.2-2.1,0.3-3.2,0.3h-15.4v1.7c0,2.4,0.9,4.4,2.7,5.8
				c1.8,1.4,4.1,2.2,6.8,2.2c1.7,0,3.1-0.2,4.2-0.7c1.1-0.5,2-0.9,2.7-1.4c0.7-0.4,1.4-0.7,2-0.7c0.6,0,1.2,0.2,1.6,0.6
				c0.4,0.4,0.8,0.9,1,1.4c0.2,0.5,0.4,1,0.4,1.5c0,0.7-0.5,1.5-1.5,2.4c-1,0.9-2.4,1.6-4.2,2.2C389.8,64.7,387.6,65,385.2,65z
				 M375.9,44.4H388c1.1,0,1.8-0.1,2.2-0.4c0.4-0.3,0.5-0.9,0.5-1.8c0-1.3-0.3-2.4-0.9-3.5c-0.6-1.1-1.5-1.9-2.6-2.6
				c-1.1-0.6-2.4-0.9-3.8-0.9c-1.4,0-2.6,0.3-3.7,0.9c-1.1,0.6-2,1.4-2.7,2.4c-0.7,1-1,2.2-1,3.6V44.4z"/>
		</g>
	</g>
	<g>
		<g>
			<path class="st0" d="M26.1,57.1c-13.3,0-24-10.8-24-24c0-13.3,10.8-24,24-24s24,10.8,24,24C50.1,46.3,39.4,57.1,26.1,57.1z
				 M26.1,17.7c-8.5,0-15.4,6.9-15.4,15.4s6.9,15.4,15.4,15.4s15.4-6.9,15.4-15.4S34.6,17.7,26.1,17.7z"/>
		</g>
		<g>
			<path class="st0" d="M24.7,89c-5.7,0-11.2-2.7-14.6-7.4C8.6,79.7,9,77,11,75.6c1.9-1.4,4.6-1,6.1,0.9c1.8,2.5,4.6,3.9,7.7,3.9
				c5.3,0,9.6-4.3,9.6-9.6c0-5.3-4.3-9.6-9.6-9.6c-3.1,0-5.9,1.4-7.7,3.9c-1.4,1.9-4.2,2.3-6.1,0.9c-1.9-1.4-2.3-4.2-0.9-6.1
				c3.4-4.6,8.9-7.4,14.6-7.4c10.1,0,18.3,8.2,18.3,18.3C43,80.8,34.8,89,24.7,89z"/>
		</g>
		<g>
			<circle class="st1" cx="47.7" cy="6.5" r="5.5"/>
		</g>
		<g>
			<circle class="st1" cx="18.3" cy="33.1" r="2.4"/>
		</g>
		<g>
			<circle class="st1" cx="26.1" cy="33.1" r="2.4"/>
		</g>
		<g>
			<circle class="st1" cx="33.9" cy="33.1" r="2.4"/>
		</g>
	</g>
</g>
</svg>
