<?xml version="1.0" encoding="utf-8"?>
<!-- Generator: Adobe Illustrator 22.0.0, SVG Export Plug-In . SVG Version: 6.00 Build 0)  -->
<svg version="1.1" id="Layer_1" xmlns="http://www.w3.org/2000/svg" xmlns:xlink="http://www.w3.org/1999/xlink" x="0px" y="0px"
	 viewBox="0 0 914.2 700" style="enable-background:new 0 0 914.2 700;" xml:space="preserve">
<style type="text/css">
	.st0{fill:#FFFFFF;}
	.st1{fill:url(#SVGID_3_);}
	.st2{fill:#F9F9F9;}
	.st3{opacity:8.000000e-02;}
	.st4{fill:#F48120;}
	.st5{fill:#EF4E23;}
	.st6{fill:url(#SVGID_10_);}
	.st7{fill:url(#SVGID_11_);}
	.st8{fill:#005499;}
	.st9{fill:#C9C9C9;}
	.st10{fill:none;stroke:#000000;stroke-miterlimit:10;}
	.st11{fill:#E3F8FC;}
	.st12{fill:#F9F3E0;}
	.st13{fill:#E1F0E5;}
	.st14{fill:#ECF4FF;}
	.st15{fill:#FFE5DC;}
	.st16{fill:#5FC7E0;}
	.st17{fill:#FACA15;}
	.st18{fill:#38AA56;}
	.st19{fill:#428DFC;}
	.st20{fill:#F36E36;}
	.st21{fill:#2F2E41;}
	.st22{fill:#9F616A;}
	.st23{fill:#F2F2F2;}
	.st24{fill:#3F3D56;}
	.st25{fill:#CBCBCB;}
	.st26{fill:#74ECF3;}
	.st27{fill:#A0C6F4;}
	.st28{fill:#2A1E17;}
	.st29{fill:#F9865F;}
	.st30{fill:#2A1E33;}
	.st31{fill:#FF8A66;}
	.st32{fill:#FFEAA0;}
	.st33{fill:#FF6D66;}
	.st34{fill:#FAD8B0;}
	.st35{fill:#C6CBCB;}
	.st36{fill:#FFF7DC;}
	.st37{fill:#FFE1C0;}
	.st38{fill:#91BA83;}
	.st39{fill:#96BD89;}
	.st40{fill:#FFFFFF;filter:url(#Adobe_OpacityMaskFilter);}
	.st41{mask:url(#mask0_2_);}
	.st42{fill:#FFFFFF;filter:url(#Adobe_OpacityMaskFilter_1_);}
	.st43{mask:url(#mask0_3_);}
	.st44{fill:#FF3E4A;}
	.st45{fill:#FFFFFF;filter:url(#Adobe_OpacityMaskFilter_2_);}
	.st46{mask:url(#mask0_1_);}
	.st47{fill:#DE1731;}
	.st48{fill:#FFB600;}
	.st49{fill:#FFFFFF;filter:url(#Adobe_OpacityMaskFilter_3_);}
	.st50{mask:url(#mask1_2_);}
	.st51{fill:#E28200;}
	.st52{fill:#252525;}
	.st53{fill:#E0E0E0;}
	.st54{fill:#FF8BB9;}
	.st55{fill:#24244F;}
	.st56{fill:#FFFFFF;filter:url(#Adobe_OpacityMaskFilter_4_);}
	.st57{mask:url(#mask2_2_);}
	.st58{fill:#AED8F9;}
	.st59{fill:#FFFFFF;filter:url(#Adobe_OpacityMaskFilter_5_);}
	.st60{mask:url(#mask3_2_);}
	.st61{fill:none;stroke:#FFFFFF;stroke-width:2;}
	.st62{fill:#FFFFFF;filter:url(#Adobe_OpacityMaskFilter_6_);}
	.st63{mask:url(#mask0_4_);}
	.st64{fill:#FFFFFF;filter:url(#Adobe_OpacityMaskFilter_7_);}
	.st65{mask:url(#mask1_1_);}
	.st66{fill:#FFFFFF;filter:url(#Adobe_OpacityMaskFilter_8_);}
	.st67{mask:url(#mask2_1_);}
	.st68{fill:#FFFFFF;filter:url(#Adobe_OpacityMaskFilter_9_);}
	.st69{mask:url(#mask3_1_);}
	.st70{fill:none;stroke:#EF4E23;stroke-width:4.097;stroke-linecap:round;stroke-miterlimit:10;}
	.st71{fill:none;stroke:#595959;stroke-miterlimit:10;}
	.st72{fill:url(#SVGID_14_);}
	.st73{fill:url(#SVGID_15_);}
	.st74{fill:url(#SVGID_16_);}
	.st75{fill:url(#SVGID_19_);}
	.st76{fill:url(#SVGID_22_);}
	.st77{fill:url(#SVGID_25_);}
	.st78{fill:url(#SVGID_28_);}
</style>
<g>
	<path class="st0" d="M634.8,196.7c-65.9-58-143.1-73-163.5-76c13.7-34.8,35-86.6,40.3-94.2c1.7-0.2,5.2-0.6,10.3-0.6
		c15,0,47.1,2.9,93.5,22.5c67,28.3,85,60.2,88.5,68L634.8,196.7z"/>
	<ellipse class="st26" cx="52.9" cy="112.5" rx="51.6" ry="52.3"/>
	<path class="st27" d="M521.9,22.1c-8.2,0-12.3,0.8-12.3,0.8c-4.8,1.5-43.8,100.9-43.8,100.9s92.7,8.9,169.4,78.5l73.3-85.2
		c0,0-12.2-38.7-91.4-72.2C570.7,25.4,538.3,22.1,521.9,22.1z M521.9,29.7c14.7,0,46.1,2.9,91.8,22.2c60.6,25.6,80.2,54.3,85.4,63.9
		l-64.7,75.2c-39-33.3-80.9-51.7-110-61.4c-20.6-6.9-37.4-10.4-47.5-12.1c15.2-38.3,31.7-77.8,37.3-87.6
		C515.9,29.9,518.5,29.7,521.9,29.7z"/>
	<path class="st28" d="M479.3,132.5c0,0,0.3,0,1,0.1c10.1,1.1,93.4,11.6,145.6,56.7c0.4,0.4,1.1,0.3,1.4-0.1c0.4-0.4,0.4-1-0.1-1.3
		c-56.5-48.7-147.7-57.3-147.8-57.3c-0.6-0.1-1.1,0.3-1.1,0.9C478.3,132,478.7,132.4,479.3,132.5L479.3,132.5z"/>
	<path class="st27" d="M558.1,127.4l34-62.1L627,130L558.1,127.4z"/>
	<path class="st28" d="M564.7,126.5l0.9,0.4l33.1-60.4l33.3,61.6l-67.2-2.6L564.7,126.5l0.9,0.4L564.7,126.5l0,1l68.9,2.7
		c0.4,0,0.7-0.2,0.9-0.4c0.2-0.3,0.2-0.6,0.1-0.9L599.6,64c-0.2-0.3-0.5-0.5-0.9-0.5c-0.4,0-0.7,0.2-0.9,0.5l-34,62.1
		c-0.2,0.3-0.1,0.6,0,0.9c0.2,0.3,0.5,0.5,0.8,0.5L564.7,126.5z"/>
	<path class="st28" d="M532.7,19.3c0,0,0.4,0,1.1,0.1c11.4,1.2,104.6,13,163.8,79.1c0.4,0.4,1,0.5,1.4,0.1c0.4-0.3,0.5-0.9,0.1-1.3
		c-31.9-35.6-73.5-55.6-107.1-66.6c-33.6-11.1-59.2-13.2-59.3-13.2c-0.6,0-1.1,0.3-1.1,0.9C531.7,18.8,532.1,19.2,532.7,19.3z"/>
	<path class="st28" d="M585,293.3c-5.6-3.9-9.3-6.5-9.3-6.5c1.6-1.9,26.1-26.5,40.4-46.4C616,240.5,587.3,294.9,585,293.3z"/>
	<path class="st28" d="M235.8,114.6c0.7,1.2,1.4,2,2.2,2.5c0.8,0.6,1.8,0.8,2.8,0.8c1.9,0,4-0.6,7.8-0.8c0.4,0,0.7,0,1.1,0
		c3.7,0,8.1,1.3,11.9,3.6c3.9,2.3,7.3,5.7,9.1,9.8c1.9,4.3,2.5,6.8,2.5,8.2c0,0.8-0.2,1.2-0.4,1.5c-0.2,0.3-0.6,0.5-1.1,0.8
		c-0.1,0.1-0.5,0.2-1.1,0.4c-2.1,0.5-6.1,1.2-9.7,2.1c-1.8,0.4-3.5,0.9-4.8,1.5c-0.7,0.3-1.3,0.6-1.7,0.9c-0.5,0.4-0.9,0.8-1,1.5
		c-0.1,0.5,0.2,1,0.8,1.1c0.5,0.1,1.1-0.2,1.2-0.7l0.1-0.1c0.1-0.2,0.5-0.4,1-0.7c1.8-0.9,5.5-1.8,8.8-2.5c1.7-0.3,3.3-0.7,4.6-1
		c0.7-0.1,1.2-0.3,1.7-0.4c0.5-0.1,0.9-0.3,1.3-0.5c0.6-0.3,1.2-0.7,1.7-1.4c0.5-0.7,0.8-1.5,0.8-2.6c0-1.9-0.8-4.6-2.7-9
		c-2-4.6-5.7-8.2-9.9-10.7c-4.2-2.5-8.9-3.9-13-3.9c-0.4,0-0.8,0-1.2,0c-3.9,0.3-6.3,0.8-7.6,0.8c-0.7,0-1.1-0.1-1.6-0.4
		c-0.5-0.3-1-0.9-1.7-2c-0.3-0.5-0.9-0.6-1.4-0.3C235.6,113.5,235.5,114.1,235.8,114.6z"/>
	<path class="st29" d="M441.6,579l-7.1-11.2l-25.1,39.4l6.6,4.8L441.6,579z"/>
	<path class="st29" d="M274.6,481.4c0,0-13-19.9-7.4-29.6l41.6,4.2L274.6,481.4z"/>
	<path d="M274.6,481.4l2.5,5.4l-7.7,28.1c-1,3.5,0.3,7.3,3.2,9.7l38-52.8c3.6-5,2.8-11.7-1.9-15.9l-8.5-7.4L274.6,481.4z"/>
	<path class="st30" d="M254.3,147.5c11.9-0.3,27-1,24-9.5c-3-8.5-14.3-29.7-40-23.4c0,0-9,7.1,2.3,19.8
		C251.9,147.2,254.3,147.5,254.3,147.5z"/>
	<path class="st8" d="M314.5,456.4c0,0-20.3-56.3-3.1-81.1c14.2-20.4,60.5,12.8,66.9,17.3l33.2-56.3c0,0-7.7-10.1-26.5-19.9
		c-18.8-9.9-96.5-39.4-133,14.6c-13.5,20-13.7,105.7,12.2,138.6L314.5,456.4z"/>
	<path class="st28" d="M315.5,456.1c0,0-0.2-0.4-0.4-1.2c-1.9-5.6-9.6-29.6-9.6-51.4c0-10.5,1.8-20.5,6.7-27.6
		c1.5-2.2,3.5-3.7,5.7-4.7c2.2-1,4.8-1.4,7.6-1.4c9.3,0,21.2,5,31.3,10.5c10.1,5.5,18.4,11.4,20.8,13.1c0.5,0.3,1.1,0.2,1.4-0.2
		c0.3-0.4,0.2-1-0.2-1.3c-2.4-1.7-10.8-7.7-21-13.3c-10.2-5.6-22.3-10.7-32.3-10.8c-3,0-5.9,0.5-8.5,1.6c-2.6,1.1-4.8,2.9-6.5,5.4
		c-5.3,7.6-7.1,17.9-7.1,28.6c0,25.3,10.1,53.2,10.1,53.2c0.2,0.5,0.8,0.8,1.3,0.6C315.4,457.2,315.7,456.6,315.5,456.1L315.5,456.1
		z"/>
	<path class="st8" d="M411.5,336.4c-15.1,14.9-59.8,87.6-69.9,122.3c-13.5,46.4-8.4,85,65.5,160.4l35.7-48.9
		c0,0-25.1-35.8-20.4-69.6c6.8-48.9,43.8-96.2,62.6-126.3L411.5,336.4z"/>
	<path class="st28" d="M417.1,342.7l59.5,43.8l17.8-25.4L417.1,342.7z"/>
	<path class="st31" d="M758.6,296.6c9.3,1.9,16.3,5.2,21.2,10c4.9,4.8,2.6,7.3,0.9,8.7c-1.8,1.5-8.6-0.2-14.6-5.2
		C760.2,305.1,758.6,296.6,758.6,296.6z"/>
	<path class="st29" d="M575.7,286.9c1.6-1.9,26.1-26.5,40.4-46.4c0,0,43,45.3,47.7,46.7c1.7,0.5,12.3,0.4,25.4,0.3
		c22.1-0.2,51.6-0.4,58.1,2.6c10.4,4.9,16.6,7.3,19.2,14.1c2.6,6.8,3.6,11.3-2.6,11.7c-7.3,0.5-11.9-8.3-11.9-8.3s-5.9,3.4-21.2,8.8
		c0,0-55.1,20.1-92,10.4C628.5,324.2,575.7,286.9,575.7,286.9z"/>
	<path class="st29" d="M241.5,106.1c-4.7,1.7-7.6,3.7-4.9,8c2.7,4.3,4,2.6,11.9,2c7.9-0.6,19.2,4.9,23.1,14c4,9.1,2.7,10.6,0.6,11.7
		c-2.1,1.1-17.3,2.9-17.9,5.7c-0.6,2.9,6.2,11.3,20.2,10.7l3.3-0.6c0,0,29.4,27,33.7,31c4.3,4,35.6,23.9,52.8,28
		c13.1,3.1,39.7-0.9,55.6-3.8c7.7-1.4,13-2.6,13-2.6s-12-20.3-14.4-51.4c0,0-28.6,4.3-47.7,8.2c0,0-44.4-23.3-66-33.5
		c0,0-18.9-21.7-27.7-24.6C268.3,106.1,247.9,103.8,241.5,106.1z"/>
	<path class="st28" d="M419.9,212.8c7.7-1.4,13-2.6,13-2.6s-14.5-17.1-16.9-48.3c0,0-6.5,6.6-4.5,24.3
		C414,208.3,419.9,212.8,419.9,212.8z"/>
	<path class="st32" d="M415.3,158.4c0,0,0.4,38,11.3,53.9l3.9-1.5c0,0-51.2,56.2-67.7,92.9c-2.7,6,106.2,71.3,122.3,70.4
		c0,0,53.1-76.1,71.2-98.6l19.5,14.2c0,0,38.3-36.4,40.3-49.3c0,0-37-42.2-67.2-54.6c-30.2-12.4-57.2-33.5-89.7-33
		C431,153.5,415.3,158.4,415.3,158.4z"/>
	<path class="st28" d="M575.7,289.8l-19.5-14.2l3.1-7.9L575.7,289.8z"/>
	<path class="st29" d="M605.4,139.4c-3.4,10-13.3,38.8-24.3,42.4c-11,3.6-22.5-0.9-22.5-0.9l-11.7,5.6c-1.3,3.7-10.6,6.9-22.5,7.3
		c-8.8,0.3-14.2-10.3-11.6-18.1c1.2-3.5,5.7-21,5.7-21s9.5-32.8,18.2-39.5c8.7-6.8,16.9-13.5,40.2-4.6
		C612.6,124.1,605.4,139.4,605.4,139.4z"/>
	<path class="st30" d="M534.7,140.8c-1.6,6.1-8.3,18.4-12.8,16.2c-4.4-2.2-6-7.8-2.9-18.6c3.1-10.8,5.7-35.3,14.6-39.7
		c8.9-4.4,12.8,0.7,12.8,0.7s-3.9-17.9,7.6-20.3c0,0,3.9-1.7,2.3,10.5c0,0,4.4-11.3,18.8-9.8c14.4,1.5,19.3,20.3,19.3,20.3
		s1-5.1,7.6-5.1c6.5,0,16.4,9.1,14.1,19.1c0,0,16.7-4.9,25.6,7.6c8.9,12.5,7.8,26.2-13.6,31.6c-22.4,5.6-22.2-18.9-25.6-22.1
		c-3.4-3.2-7-6.9-19.6-2.4c-12.5,4.4-25.6-8.6-25.6-8.6s-2.1,15.7-4.2,17.1c-2.1,1.5-6.3,3.4-5.2-3.9c1-7.4,2.4-6.6,1.6-8.6
		c-0.8-2-4.3-8.1-11.7-2.7C529.5,128.3,534.7,140.8,534.7,140.8z"/>
	<path class="st30" d="M538.9,142.8c-3.2-2.5-5.7-6.3-5.7-10.5c0-2,0.5-4,1.9-6.1c2.8-4.4,6.7-6.1,9.3-6.1c1.3,0,2.3,0.4,2.7,1
		c1.2,1.4,1.9,3.4,1.9,5.9c0,1.6-0.3,3.5-1.1,5.4c-0.2,0.5,0.1,1,0.6,1.2c0.5,0.2,1.1-0.1,1.3-0.6c0.9-2.2,1.2-4.2,1.2-6.1
		c0-2.9-0.9-5.3-2.4-7.1c-1-1.2-2.6-1.7-4.3-1.7c-3.5,0-8,2.2-11.1,7c-1.5,2.4-2.2,4.8-2.1,7.1c0,4.9,2.9,9.1,6.4,11.9
		c0.4,0.3,1.1,0.3,1.4-0.1C539.4,143.8,539.3,143.2,538.9,142.8z"/>
	<path d="M415.9,611.9l2.5,5.4l-7.7,28.1c-1,3.5,0.3,7.3,3.2,9.7l38-52.8c3.6-5,2.8-11.7-1.9-15.9l-8.5-7.4L415.9,611.9z"/>
	<path class="st30" d="M547.4,99.1c0-0.1-0.8-2.4-2.7-5c-1.9-2.6-5-5.6-9.7-6.9c-0.5-0.1-1.1,0.1-1.3,0.7c-0.2,0.5,0.2,1,0.7,1.2
		c4.1,1.1,6.8,3.7,8.5,6.1c0.9,1.2,1.5,2.3,1.9,3.2c0.2,0.4,0.3,0.8,0.4,1l0.1,0.3l0,0.1c0.2,0.5,0.7,0.8,1.3,0.6
		C547.3,100.2,547.6,99.6,547.4,99.1z"/>
	<path class="st28" d="M362.3,301.7l105.3-138.1c0.3-0.4,0.2-1-0.2-1.3c-0.5-0.3-1.1-0.2-1.4,0.2L360.7,300.6
		c-0.3,0.4-0.2,1,0.2,1.3C361.4,302.2,362,302.1,362.3,301.7z"/>
	<path class="st28" d="M509.4,172.1c-0.8,1-1.5,2.5-1.9,4.2c-0.5,1.7-0.8,3.8-0.8,5.9c0,3.7,0.9,7.8,3.2,11.1
		c2.4,3.3,6.3,5.8,12.1,6.2c1.5,0.1,2.9,0.2,4.3,0.2c15.3,0,24.9-6.2,25-6.2c0.5-0.3,0.6-0.9,0.3-1.3c-0.3-0.4-1-0.5-1.4-0.2
		l-0.1,0.1c-1,0.6-9.9,5.8-23.8,5.8c-1.3,0-2.7,0-4.1-0.2c-5.3-0.4-8.5-2.5-10.6-5.4c-2.1-2.9-2.9-6.6-2.9-10c0-2,0.3-3.9,0.7-5.4
		c0.4-1.6,1-2.8,1.6-3.5c0.3-0.4,0.3-1-0.2-1.3C510.4,171.6,509.7,171.7,509.4,172.1z"/>
	<path class="st28" d="M276.3,109.5c0,0,0.7,0.9,1.9,2.4c1.7,2.2,4.4,5.7,6.7,9.1c2.4,3.4,4.5,6.7,5.1,8.5c0.2,0.5,0.8,0.8,1.3,0.6
		c0.5-0.2,0.8-0.7,0.6-1.2c-0.5-1.5-1.7-3.4-3.1-5.6c-4.2-6.5-11-14.9-11-14.9c-0.3-0.4-1-0.5-1.4-0.2
		C276,108.5,275.9,109.1,276.3,109.5z"/>
	<path class="st28" d="M727.1,310.2c0.1,0.1,3.3,2.5,9.5,2.5c4,0,9.2-1,15.7-4.2c2.2-1.1,3.3-2.8,3.3-4.6c0-1.5-0.8-2.9-2-3.9
		c-1.3-1-3-1.7-5.1-1.7c-0.8,0-1.6,0.1-2.5,0.3c-1.7,0.4-3.6,0.6-5.4,0.6c-2.7,0-5.2-0.4-7.1-0.7c-0.9-0.2-1.7-0.4-2.2-0.5
		c-0.3-0.1-0.5-0.1-0.6-0.2l-0.2-0.1c-0.5-0.2-1.1,0.1-1.3,0.6c-0.2,0.5,0.1,1,0.7,1.2c0.1,0,5,1.5,10.8,1.5c1.9,0,3.9-0.2,5.9-0.6
		c0.7-0.2,1.4-0.2,2-0.2c1.6,0,2.9,0.5,3.8,1.2c0.9,0.7,1.3,1.6,1.3,2.5c0,1-0.6,2-2.2,2.9c-6.2,3.1-11.1,4-14.7,4
		c-2.8,0-4.9-0.5-6.3-1.1c-0.7-0.3-1.2-0.5-1.5-0.7l-0.4-0.2l-0.1-0.1l0,0l-0.2,0.2l0.2-0.2l0,0l-0.2,0.2l0.2-0.2
		c-0.4-0.3-1.1-0.3-1.4,0.1C726.6,309.3,726.7,309.9,727.1,310.2z"/>
	<path class="st28" d="M760.6,298.1c0,0,0.1,0.1,0.3,0.3c0.7,0.8,2.5,2.9,4.1,5.3c1.6,2.4,2.9,5.2,2.9,7l0,0.2c0,0.5,0.4,1,1,1
		c0.6,0,1-0.4,1.1-0.9l0-0.2c0-1.5-0.5-3-1.3-4.6c-2.2-4.6-6.5-9.3-6.5-9.3c-0.4-0.4-1-0.4-1.4-0.1
		C760.3,297.1,760.2,297.7,760.6,298.1z"/>
	<path class="st28" d="M648.6,297.1L648.6,297.1c0.4-0.5,2.3-2.6,5-4.7c2.7-2.1,6.3-4,10.2-4.3c0.6,0,1-0.5,0.9-1
		c0-0.5-0.5-0.9-1.1-0.9c-4.8,0.3-8.9,2.8-11.9,5.1c-2.9,2.3-4.7,4.6-4.8,4.6c-0.3,0.4-0.2,1,0.2,1.3
		C647.7,297.6,648.3,297.6,648.6,297.1z"/>
	<path class="st28" d="M354.6,181.4l0-0.1c0.2-0.6,1.4-3.5,4-6.4c2.6-3,6.5-5.9,12.3-6.9c0.6-0.1,0.9-0.6,0.8-1.1
		c-0.1-0.5-0.6-0.9-1.2-0.8c-6.8,1.1-11.3,4.9-14.1,8.2c-2.8,3.4-3.8,6.4-3.8,6.5c-0.2,0.5,0.1,1,0.7,1.2
		C353.9,182.2,354.5,181.9,354.6,181.4z"/>
	<path class="st28" d="M388.1,361.5l-15.6,28l0.9,0.4l-0.9-0.5c0,0-9.4,15-18.8,36.2c-9.4,21.2-18.8,48.8-18.8,74.1
		c0,8.6,1.1,16.9,3.7,24.7c0.2,0.5,0.7,0.8,1.3,0.6c0.5-0.2,0.8-0.7,0.7-1.2c-2.5-7.5-3.6-15.7-3.6-24.1c0-24.9,9.3-52.3,18.7-73.4
		c4.7-10.6,9.4-19.6,12.9-25.9c1.8-3.2,3.2-5.7,4.2-7.4c0.5-0.9,0.9-1.5,1.2-2c0.3-0.4,0.4-0.7,0.4-0.7l15.6-28
		c0.3-0.5,0.1-1-0.4-1.3C389,360.9,388.4,361,388.1,361.5z"/>
	<path class="st28" d="M435.4,456l50.5-81.3l-0.9-0.5l0.8,0.5c0,0,16.5-22.5,33.9-46.7c8.7-12.1,17.6-24.5,24.8-34.8
		c3.6-5.1,6.7-9.7,9.2-13.4c2.5-3.7,4.2-6.5,5.1-8.2l-0.9-0.4l0.9,0.5l23.4-40.6c0.3-0.5,0.1-1-0.4-1.3c-0.5-0.3-1.1-0.1-1.4,0.4
		l-23.4,40.6l0,0c-0.8,1.5-2.6,4.3-5,8c-8.6,12.9-25.6,36.6-40.4,57c-7.4,10.2-14.3,19.7-19.3,26.5c-2.5,3.4-4.6,6.2-6,8.2
		c-1.4,1.9-2.2,3-2.2,3l0,0.1L433.6,455c-0.3,0.5-0.1,1,0.4,1.3C434.5,456.6,435.1,456.5,435.4,456z"/>
	<path class="st28" d="M368,310.6c0,0,22.5,15.4,48.3,31.1c12.9,7.9,26.6,15.9,38.8,22.1c12.2,6.2,22.8,10.6,29.8,11.4
		c0.6,0.1,1.1-0.3,1.1-0.8c0.1-0.5-0.3-1-0.9-1.1c-6.4-0.7-17-5-29.1-11.2c-18.2-9.2-39.9-22.5-57.1-33.5
		c-8.6-5.5-16-10.4-21.3-13.9c-2.6-1.8-4.8-3.2-6.2-4.2c-1.5-1-2.2-1.5-2.2-1.5c-0.5-0.3-1.1-0.2-1.4,0.2
		C367.4,309.6,367.5,310.2,368,310.6z"/>
	<path class="st28" d="M414.2,158.4L414.2,158.4c0,0.6,0,10.3,1.4,21.9c1.4,11.6,4.1,25,9.8,33c0.3,0.4,0.9,0.6,1.4,0.3
		c0.5-0.3,0.6-0.9,0.3-1.3c-5.3-7.5-8.1-20.8-9.4-32.2c-1.4-11.5-1.4-21.1-1.4-21.6v0c0-0.5-0.4-1-1-1
		C414.7,157.5,414.2,157.9,414.2,158.4z"/>
	<path class="st28" d="M612.1,234.2c-0.6,3.7-3.4,8.7-7.3,14c-5.8,8-14,16.7-20.7,23.4c-3.4,3.3-6.4,6.2-8.5,8.2
		c-1.1,1-1.9,1.8-2.5,2.3c-0.6,0.5-0.9,0.8-0.9,0.8c-0.4,0.4-0.4,1,0,1.3c0.4,0.4,1,0.4,1.4,0c0,0,9.4-8.4,19.2-18.7
		c4.9-5.2,9.9-10.9,13.8-16.3c3.9-5.4,6.9-10.5,7.7-14.8c0.1-0.5-0.3-1-0.8-1.1C612.8,233.4,612.2,233.7,612.1,234.2z"/>
	<path class="st28" d="M338.8,427.5c0,2.8-2.4,5-5.3,5c-2.9,0-5.3-2.2-5.3-5c0-2.8,2.4-5,5.3-5C336.4,422.5,338.8,424.7,338.8,427.5
		z"/>
	<path class="st28" d="M833.8,535.1l1-0.1l-2.6-17l13.5,8.4l-6.8,1.4c-0.2,0-0.4,0.2-0.6,0.3l-5.3,6.4L833.8,535.1l1-0.1
		L833.8,535.1l0.8,0.6l5.1-6.2l8.7-1.8c0.4-0.1,0.7-0.4,0.8-0.8c0.1-0.4-0.1-0.8-0.4-1l-17.4-10.9c-0.3-0.2-0.8-0.2-1.1,0
		c-0.3,0.2-0.5,0.6-0.5,0.9l2.9,19.2c0.1,0.4,0.4,0.7,0.7,0.8c0.4,0.1,0.8,0,1.1-0.3L833.8,535.1z"/>
	<path class="st28" d="M257.4,207.4c-4.7-3.9-9.9-6-14.8-6c-5.3,0-10.3,2.4-13.8,7.3c-3.5,4.9-5.7,12.1-5.7,21.9
		c0,18.8,7.9,46.9,30,85.8c22,38.9,58.2,88.4,114.8,150c38.2,41.6,73.7,70.6,104.6,89.2c30.9,18.6,57.1,26.9,76.9,27
		c10,0,18.4-2.1,24.9-6.2c6.4-4.1,10.9-10.1,13-17.6c2.8-9.8,3.9-18.7,3.9-26.7c0-18.6-6.4-32.5-14-41.6c-3.8-4.6-7.9-8-11.7-10.3
		c-3.8-2.3-7.3-3.5-10-3.5c-1.3,0-2.4,0.3-3.3,0.9c-0.9,0.7-1.4,1.7-1.4,2.9c0,1.4,0.6,3,1.7,4.9c1.1,1.9,2.8,4.1,5.2,6.6
		c12.2,12.7,30.7,22.5,53,29.1c22.3,6.6,48.3,10.1,75.7,10.1c42.6,0,88.5-8.4,128.4-26.7c19.8-9,32.7-19.2,40.6-29.7
		c7.9-10.5,10.8-21.2,10.8-31.2c0-12.8-4.8-24.5-9.9-33.2c-2.6-4.4-5.2-8-7.5-10.7c-1.1-1.3-2.1-2.4-3-3.3c-0.8-0.8-1.5-1.4-2-1.8
		c-0.5-0.3-1.1-0.2-1.4,0.2c-0.3,0.4-0.2,1,0.2,1.3c0.3,0.2,0.9,0.7,1.7,1.5c2.8,2.8,7.7,8.9,12,16.9c4.2,8.1,7.8,18.1,7.8,29
		c0,9.7-2.8,20-10.5,30.1c-7.7,10.1-20.2,20.1-39.8,29.1c-39.6,18.1-85.2,26.5-127.5,26.5c-27.2,0-53.1-3.5-75.1-10
		c-22-6.6-40.2-16.2-52.1-28.6c-2.3-2.4-4-4.5-5-6.2c-1-1.7-1.4-3.1-1.4-3.9c0-0.8,0.2-1.2,0.6-1.5c0.4-0.3,1-0.5,2-0.5
		c2.1,0,5.3,1,8.9,3.2c10.8,6.5,24.8,23,24.8,50.3c0,7.8-1.2,16.6-3.9,26.2c-2,7.1-6.1,12.7-12.1,16.5c-6,3.8-14,5.9-23.7,5.9
		c-19.2,0-45.2-8.1-75.8-26.7c-30.7-18.5-66.1-47.4-104.2-88.9c-56.5-61.4-92.6-110.9-114.5-149.6c-21.9-38.7-29.7-66.6-29.7-84.9
		c0-9.5,2.1-16.4,5.3-20.8c3.2-4.4,7.5-6.5,12.1-6.5c4.3,0,9.1,1.8,13.5,5.5c0.4,0.3,1.1,0.3,1.4-0.1
		C257.9,208.3,257.9,207.7,257.4,207.4z"/>
	<path class="st28" d="M821.1,503.2c0,2.8-2.4,5-5.3,5c-2.9,0-5.3-2.2-5.3-5c0-2.8,2.4-5,5.3-5C818.7,498.2,821.1,500.5,821.1,503.2
		z"/>
	<path class="st28" d="M738.7,544.9l158.1-83.7c0.5-0.3,0.7-0.8,0.4-1.3c-0.3-0.5-0.9-0.6-1.4-0.4l-158.1,83.7
		c-0.5,0.3-0.7,0.8-0.4,1.3C737.5,545,738.2,545.2,738.7,544.9z"/>
	<path class="st28" d="M265.4,212.1c0,2.8-2.4,5-5.3,5s-5.3-2.2-5.3-5c0-2.8,2.4-5,5.3-5S265.4,209.4,265.4,212.1z"/>
	<path class="st33" d="M407.5,108.8c0,5.9-5.1,10.7-11.4,10.7c-6.3,0-11.4-4.8-11.4-10.7c0-5.9,5.1-10.7,11.4-10.7
		C402.3,98,407.5,102.8,407.5,108.8z"/>
	<path class="st27" d="M188.4,26.8c-2.8,0-5,2.1-5,4.7s2.3,4.7,5,4.7c2.8,0,5-2.1,5-4.7S191.2,26.8,188.4,26.8z"/>
	<path class="st34" d="M794.8,608.7c0,2.6-2.3,4.7-5,4.7c-2.8,0-5-2.1-5-4.7s2.3-4.7,5-4.7C792.5,603.9,794.8,606.1,794.8,608.7z"/>
	<path class="st30" d="M772.5,395.4l-54.1-23.8c-4.4-1.9-4.3-7.8,0.1-9.6l100.6-41.6c1.4-0.6,3-0.6,4.5,0l69.1,27.8L772.5,395.4z"/>
	<path class="st35" d="M769.1,317.1c0.1,21,3.3,78.3,3.3,78.3l120.2-47.2l-2.7-79.7c-0.2-4.9-5.6-8.1-10.3-6l-103.5,44.3
		C771.8,308.6,769.1,312.6,769.1,317.1z"/>
	<path class="st28" d="M772.8,396.3l120.2-47.2c0.4-0.2,0.6-0.5,0.6-0.9l-2.7-79.7l0-0.1c0-0.1-0.2-1.8-1.2-3.6
		c-0.5-0.9-1.3-1.9-2.4-2.6c-1.1-0.7-2.6-1.2-4.3-1.2c-1.1,0-2.3,0.2-3.7,0.6c-0.5,0.2-0.8,0.7-0.7,1.2c0.2,0.5,0.7,0.8,1.3,0.6
		c1.2-0.3,2.2-0.5,3.1-0.5c1.4,0,2.4,0.3,3.2,0.9c1.2,0.8,1.9,1.9,2.3,3c0.2,0.5,0.3,1,0.4,1.3l0.1,0.4l0,0.1l0,0l1-0.1l-1,0
		l2.7,79.1l-119.6,46.9c-0.5,0.2-0.8,0.8-0.5,1.2C771.7,396.2,772.3,396.5,772.8,396.3z"/>
	<path class="st28" d="M831.6,338.4l8.1-18c0.2-0.5,0-1-0.5-1.3c-0.5-0.2-1.1,0-1.3,0.5l-8.1,18c-0.2,0.5,0,1,0.5,1.3
		C830.8,339.2,831.4,338.9,831.6,338.4z"/>
	<path class="st28" d="M839.7,338.4l8.1-18c0.2-0.5,0-1-0.5-1.3c-0.5-0.2-1.1,0-1.3,0.5l-8.1,18c-0.2,0.5,0,1,0.5,1.3
		C838.9,339.2,839.5,338.9,839.7,338.4z"/>
	<path class="st33" d="M215.1,529.8c0,2.6-2.3,4.7-5,4.7c-2.8,0-5-2.1-5-4.7c0-2.6,2.2-4.7,5-4.7
		C212.9,525.1,215.1,527.2,215.1,529.8z"/>
	<path class="st33" d="M641.1,553.2c0,3.6-3.1,6.6-7,6.6c-3.9,0-7-2.9-7-6.6c0-3.6,3.1-6.6,7-6.6C638,546.7,641.1,549.6,641.1,553.2
		z"/>
	<path class="st36" d="M262.2,599.9c8.2,3.7,32,13,63.5,12.8c1.7,0,3.1,1.4,2.8,3l-4.4,32.7c-0.2,1.2-1.1,2.1-2.3,2.3
		c-8.9,1.6-44.8,6.2-71.6-15.2c-0.8-0.7-1.2-1.7-0.9-2.7l8.9-31.2C258.7,600,260.6,599.1,262.2,599.9z"/>
	<path class="st28" d="M264.5,610c0,0,3.9,5.1,8.5,10.6c2.3,2.8,4.8,5.6,7,8c2.3,2.4,4.3,4.2,5.9,5.1c0.7,0.4,1.4,0.5,2.3,0.5
		c2.4,0,5.6-0.9,9.2-2.3c10.7-4,24.9-12,25-12c0.5-0.3,0.6-0.9,0.4-1.3c-0.3-0.5-0.9-0.6-1.4-0.3c0,0-0.4,0.2-1.1,0.6
		c-2.5,1.3-8.7,4.7-15.3,7.7c-3.3,1.5-6.6,2.9-9.6,4c-2.9,1-5.5,1.7-7.1,1.7c-0.6,0-1.1-0.1-1.3-0.2c-1.2-0.6-3.2-2.4-5.4-4.7
		c-3.3-3.5-7.2-8.1-10.2-11.8c-1.5-1.9-2.8-3.5-3.7-4.7c-0.9-1.2-1.5-1.9-1.5-1.9c-0.3-0.4-1-0.5-1.4-0.2
		C264.3,609,264.2,609.6,264.5,610L264.5,610z"/>
	<path class="st28" d="M300.3,630.7l16.3,15.7c0.4,0.4,1,0.4,1.4,0c0.4-0.4,0.4-1,0-1.4l-16.3-15.7c-0.4-0.4-1-0.4-1.4,0
		C299.9,629.7,299.9,630.3,300.3,630.7z"/>
	<path class="st28" d="M278.1,626.1l-19,4.9c-0.5,0.1-0.9,0.7-0.7,1.2c0.1,0.5,0.7,0.8,1.2,0.7l19-4.9c0.5-0.1,0.9-0.7,0.7-1.2
		C279.2,626.2,278.7,625.9,278.1,626.1z"/>
	<path class="st37" d="M742.7,230.1h18.2V213h-18.2V230.1z"/>
	<path class="st27" d="M745.2,443.5l10.8,17.6h-21.6L745.2,443.5z"/>
	<path class="st28" d="M307.9,53.8l1,0l1.4-39.9v-0.1l0-0.4c0-1.6,0.4-2.4,0.8-2.9c0.5-0.5,1.2-0.9,2.3-1.1c7-1.5,22.5-4.7,42.1-4.7
		c12.8,0,27.3,1.4,42.2,5.5c2,0.6,2.9,1.2,3.4,1.9c0.5,0.6,0.6,1.4,0.6,2.3c0,0.3,0,0.6,0,0.9v0l-1.4,38.1c0,1-0.5,1.8-1.4,2.4
		c-0.8,0.6-2,1-3.3,1c-0.3,0-0.6,0-0.9-0.1c-10.1-1.4-23.5-1.9-37.3-1.9c-1.5,0-3,0-4.6,0c-16,0.1-30.2,1.2-40.2,3
		c-0.4,0.1-0.7,0.1-0.9,0.1c-1.1,0-1.7-0.4-2.2-1c-0.5-0.7-0.8-1.7-0.8-2.9l0-0.3v0L307.9,53.8l-1,0l0,0.4c0,1.4,0.3,2.8,1.1,4
		c0.8,1.1,2.2,1.9,3.9,1.9c0.4,0,0.9,0,1.3-0.1c9.8-1.8,24-2.9,39.8-3c1.5,0,3,0,4.5,0c13.8,0,27.1,0.5,37,1.9
		c0.4,0.1,0.8,0.1,1.2,0.1c1.7,0,3.4-0.5,4.6-1.5c1.2-0.9,2-2.3,2.1-3.9l1.4-38.1v0c0-0.3,0-0.6,0-1c0-1-0.1-2.3-0.9-3.4
		c-0.8-1.1-2.2-2-4.5-2.6c-15.2-4.2-29.9-5.6-42.8-5.6C335.7,2.7,320,6,313,7.5c-1.3,0.3-2.5,0.7-3.4,1.7c-0.9,1-1.3,2.4-1.3,4.2
		l0,0.5l1,0l-1,0l-1.4,39.9v0L307.9,53.8z"/>
	<path class="st28" d="M320.7,47.9l0.8,0.6L343,24.9L366.9,47l0.7-0.7l0.3-0.9c-2.2-0.7-5.9-0.9-10.4-0.9c-14.5,0-36.9,2.5-36.9,2.5
		L320.7,47.9l0.8,0.6L320.7,47.9l0.1,0.9c0,0,1.4-0.2,3.7-0.4c7-0.7,22.3-2.1,33-2.1c4.4,0,8,0.3,9.7,0.8c0.4,0.1,0.9,0,1.2-0.4
		c0.2-0.4,0.2-0.9-0.2-1.2l-24.6-22.8c-0.2-0.2-0.5-0.3-0.8-0.3c-0.3,0-0.5,0.1-0.7,0.3L320,47.3c-0.3,0.3-0.3,0.7-0.1,1.1
		c0.2,0.3,0.6,0.5,1,0.5L320.7,47.9z"/>
	<path class="st28" d="M357.2,35.6l17.4-13.1l14.1,9.5l0.5,14.4l-21.6-1c-0.6,0-1,0.4-1.1,0.9c0,0.5,0.4,1,1,1l22.7,1
		c0.3,0,0.6-0.1,0.8-0.3c0.2-0.2,0.3-0.4,0.3-0.7l-0.6-15.9c0-0.3-0.2-0.6-0.4-0.7l-15.1-10.1c-0.4-0.2-0.9-0.2-1.2,0l-18,13.5
		c-0.4,0.3-0.5,0.9-0.2,1.3C356.1,35.8,356.8,35.9,357.2,35.6z"/>
	<path class="st28" d="M330.4,21.1l-1,0.1l0,0.2c0,0.6-0.3,1.1-0.8,1.6c-0.5,0.4-1.3,0.8-2.2,0.8l-0.2,0c-0.9,0-1.8-0.3-2.4-0.7
		c-0.6-0.5-1-1-1.1-1.7l0-0.2c0-0.6,0.3-1.2,0.8-1.6c0.5-0.4,1.3-0.8,2.2-0.8l0.2,0c0.9,0,1.8,0.3,2.4,0.7c0.6,0.5,1,1,1.1,1.7
		L330.4,21.1l1-0.1c-0.1-1.2-0.9-2.3-1.9-3c-1-0.7-2.3-1.1-3.6-1.1l-0.3,0c-1.3,0.1-2.6,0.5-3.4,1.3c-0.9,0.8-1.5,1.8-1.5,3l0,0.5
		c0.1,1.2,0.9,2.3,1.9,3c1,0.7,2.3,1.1,3.6,1.1l0.3,0c1.4-0.1,2.6-0.5,3.5-1.3c0.9-0.8,1.5-1.8,1.5-3l0-0.5L330.4,21.1z"/>
	<path class="st28" d="M737.8,572.6l-0.9,0.5l14.9,25.9l0,0.1c0.6,0.9,0.8,1.5,0.8,2c0,0.6-0.3,1-1,1.6
		c-6.4,5.5-25.6,22.3-53.8,28.9c-0.6,0.1-1.2,0.2-1.6,0.2c-0.9,0-1.3-0.2-1.6-0.5c-0.4-0.3-0.7-0.8-1-1.4l-14.2-24.7
		c-0.2-0.3-0.3-0.6-0.3-1c0-1,0.8-2.2,2.3-2.8c7.8-3,17.6-8,27.4-13.4c10.1-5.7,18.7-11.3,24.4-16c0.6-0.5,1.1-0.6,1.4-0.6
		c0.4,0,0.7,0.1,1.1,0.4c0.4,0.3,0.8,0.8,1.1,1.4L737.8,572.6l0.9-0.5c-0.4-0.7-1-1.4-1.6-1.9c-0.7-0.5-1.5-0.9-2.4-0.9
		c-0.9,0-1.9,0.4-2.8,1.1c-5.5,4.5-14.1,10.2-24.1,15.8c-9.7,5.4-19.5,10.4-27.1,13.3c-2.1,0.8-3.5,2.6-3.5,4.5
		c0,0.6,0.2,1.3,0.5,1.9l14.2,24.7c0.3,0.6,0.7,1.3,1.4,1.9c0.7,0.6,1.7,1,3,1c0.6,0,1.3-0.1,2.1-0.3c28.7-6.7,48.3-23.7,54.7-29.3
		c0.9-0.7,1.6-1.7,1.6-3c0-0.9-0.4-1.9-1.1-3l-0.9,0.5l0.9-0.5l-14.9-25.9L737.8,572.6z"/>
	<path class="st28" d="M731.9,580.8l-1-0.2l-4.3,22.3l-23.6-5.6l-0.3,0.9l0.2,0.9c1.9-0.4,4.5-1.7,7.6-3.4
		c9.2-5.1,21.9-14.2,21.9-14.2L731.9,580.8l-1-0.2L731.9,580.8l-0.6-0.8c0,0-1.4,1-3.6,2.5c-3.3,2.3-8.5,5.7-13.4,8.7
		c-2.5,1.5-4.8,2.9-6.9,3.9c-2,1.1-3.8,1.8-4.8,2c-0.5,0.1-0.8,0.5-0.8,0.9c0,0.4,0.3,0.8,0.8,0.9l24.7,5.9c0.3,0.1,0.6,0,0.8-0.1
		c0.2-0.1,0.4-0.4,0.5-0.6l4.4-23.3c0.1-0.4-0.1-0.8-0.5-1c-0.4-0.2-0.8-0.2-1.1,0.1L731.9,580.8z"/>
	<path class="st28" d="M713.4,601.3l-5.8,14.2l-12.4-1.1l-5.8-8.6l13.8-6.8c0.5-0.2,0.7-0.8,0.4-1.3c-0.3-0.5-0.9-0.6-1.4-0.4
		l-14.8,7.3c-0.3,0.1-0.4,0.3-0.5,0.6c-0.1,0.3,0,0.5,0.1,0.8l6.6,9.9c0.2,0.3,0.5,0.4,0.8,0.4l13.6,1.2c0.5,0,0.9-0.2,1-0.6
		l6.1-14.9c0.2-0.5-0.1-1-0.6-1.2C714.2,600.6,713.6,600.8,713.4,601.3z"/>
	<path class="st28" d="M736.4,601.3l0.8-0.6c-0.2-0.2-0.3-0.5-0.3-0.8c0-0.5,0.3-1.2,1-1.6c0.5-0.3,1-0.4,1.5-0.4
		c0.7,0,1.2,0.2,1.5,0.6c0.2,0.2,0.3,0.5,0.3,0.8c0,0.5-0.3,1.2-1,1.6c-0.5,0.3-1,0.4-1.5,0.4c-0.7,0-1.2-0.2-1.5-0.6l-1.6,1.1
		c0.7,0.9,1.9,1.4,3.1,1.4c0.9,0,1.8-0.2,2.6-0.7c1.2-0.8,1.9-2,1.9-3.2c0-0.7-0.2-1.3-0.7-1.9c-0.7-0.9-1.9-1.4-3.1-1.4
		c-0.9,0-1.8,0.2-2.6,0.7c-1.2,0.8-1.9,1.9-1.9,3.2c0,0.7,0.2,1.3,0.7,1.9L736.4,601.3z"/>
	<path class="st0" d="M665.2,131.2l60.6,43.5c1.3,1,3.2,0.7,4.2-0.6l9.1-11.6c1-1.2,0.7-2.9-0.5-3.9l-59.7-44.9
		c-1.3-1-3.3-0.8-4.3,0.5l-10,13C663.6,128.5,663.9,130.2,665.2,131.2z"/>
	<path class="st28" d="M665.2,131.2l-0.6,0.8l60.6,43.5c0.7,0.5,1.6,0.8,2.4,0.8c1.2,0,2.4-0.5,3.2-1.5l9.1-11.6
		c0.5-0.7,0.8-1.5,0.8-2.2c0-1.1-0.5-2.2-1.5-2.9L679.5,113c-0.7-0.6-1.6-0.8-2.5-0.8c-1.2,0-2.5,0.5-3.2,1.6l-10,13
		c-0.5,0.7-0.8,1.4-0.8,2.2c0,1.1,0.5,2.3,1.6,3L665.2,131.2l0.6-0.8c-0.5-0.4-0.8-0.9-0.8-1.5c0-0.4,0.1-0.8,0.4-1.1l10-13
		c0.4-0.5,1-0.8,1.6-0.8c0.4,0,0.9,0.1,1.2,0.4l59.7,44.9c0.5,0.4,0.7,0.9,0.7,1.5c0,0.4-0.1,0.8-0.4,1.1l-9.1,11.6
		c-0.4,0.5-1,0.8-1.6,0.8c-0.4,0-0.8-0.1-1.2-0.4l-60.6-43.5L665.2,131.2z"/>
	<path class="st33" d="M669.6,129.2l14.7,9.7l8.7-9.7l-14.7-11.5L669.6,129.2z"/>
	<path class="st34" d="M689.9,142.7l14.7,11l7.9-9.1l-14.8-11.3L689.9,142.7z"/>
	<path class="st27" d="M709.5,157.8l14.7,9.7l7-8.4l-13.9-10.9L709.5,157.8z"/>
	<path class="st0" d="M786.1,70.3l13.8,109c0.3,2.4,2.6,4.1,5.2,3.8l23.4-3c2.4-0.3,4.2-2.4,3.9-4.7L821,65.8
		c-0.3-2.4-2.6-4.2-5.2-3.8l-25.9,3.5C787.5,65.8,785.8,68,786.1,70.3z"/>
	<path class="st28" d="M786.1,70.3l-1,0.1l13.8,109c0.3,2.7,2.8,4.6,5.6,4.6c0.3,0,0.5,0,0.8-0.1l23.4-3c2.8-0.4,4.8-2.6,4.8-5.2
		l0-0.5L822,65.7c-0.3-2.7-2.7-4.7-5.6-4.7c-0.3,0-0.5,0-0.8,0.1l-25.9,3.5c-2.8,0.4-4.8,2.6-4.8,5.2c0,0.2,0,0.4,0,0.6v0
		L786.1,70.3l1-0.1l0-0.4c0-1.6,1.3-3.1,3.1-3.3l25.9-3.6l0.5,0c1.8,0,3.4,1.3,3.5,3l11.3,109.5l0,0.3c0,1.7-1.3,3.1-3.1,3.3
		l-23.4,3l-0.5,0c-1.8,0-3.3-1.2-3.5-3l-13.8-109v0L786.1,70.3z"/>
	<path class="st33" d="M793.1,72.8l4.4,25.5l20.6-1.4l-2.2-27.4L793.1,72.8z"/>
	<path class="st38" d="M799,108l2.9,26.9l19.1-1.6l-2.6-27.3L799,108z"/>
	<path class="st34" d="M802.2,144.5l4.4,25.5l17.3-1.8l-2.1-26L802.2,144.5z"/>
	<path class="st0" d="M755.9,93.5L794.1,199c0.7,1.8,2.8,2.8,4.7,2.1l23.9-8.1c1.8-0.6,2.8-2.5,2.2-4.3L789.1,82.2
		c-0.6-1.9-2.8-2.9-4.7-2.2l-26.3,9.1C756.2,89.8,755.3,91.7,755.9,93.5z"/>
	<path class="st28" d="M755.9,93.5l-1,0.3l38.2,105.5c0.7,1.8,2.5,3,4.4,3c0.5,0,1.1-0.1,1.6-0.3l23.9-8.1c1.9-0.6,3.1-2.3,3.1-4.1
		c0-0.4-0.1-0.9-0.2-1.3L790.1,81.9c-0.6-1.9-2.5-3.1-4.4-3.1c-0.5,0-1.1,0.1-1.6,0.3l-26.3,9.1c-1.9,0.7-3,2.3-3,4.1
		c0,0.5,0.1,0.9,0.3,1.4v0L755.9,93.5l1-0.3c-0.1-0.3-0.1-0.5-0.1-0.8c0-1,0.7-1.9,1.7-2.3l26.3-9.1c0.3-0.1,0.6-0.2,0.9-0.2
		c1.1,0,2.2,0.7,2.5,1.7l35.9,106.6c0.1,0.2,0.1,0.5,0.1,0.7c0,1-0.7,2-1.7,2.3l-23.9,8.1c-0.3,0.1-0.6,0.1-0.9,0.1
		c-1.1,0-2.1-0.6-2.5-1.7L756.9,93.2v0L755.9,93.5z"/>
	<path class="st27" d="M763.7,95.4l9.9,24.1l19.8-5.4l-8.3-26.4L763.7,95.4z"/>
	<path class="st29" d="M777.2,128.7l8.8,25.7l18.3-5.3l-8.6-26.2L777.2,128.7z"/>
	<path class="st34" d="M788.5,163.7l9.9,24.1l16.6-5.2l-7.8-25L788.5,163.7z"/>
	<path class="st8" d="M467.8,272.2H274.7c-6.2,0-11.1-4.7-11.1-10.5v-24.5c0-5.8,5-10.5,11.1-10.5h193.1c6.2,0,11.2,4.7,11.2,10.5
		v24.5C478.9,267.6,473.9,272.2,467.8,272.2z"/>
	<path class="st0" d="M395.4,247.1H290.2c-2,0-3.7-1.5-3.7-3.5c0-1.9,1.6-3.5,3.7-3.5h105.3c2,0,3.7,1.5,3.7,3.5
		C399.1,245.5,397.5,247.1,395.4,247.1z"/>
	<path class="st28" d="M287.5,257h178.9c0.6,0,1-0.4,1-1c0-0.5-0.5-1-1-1H287.5c-0.6,0-1,0.4-1,1C286.5,256.6,287,257,287.5,257z"/>
	<path class="st38" d="M199,144.4l-3-3.1l-10.1,8.7l3,3.1c1.3,1.3,3.5,1.4,4.9,0.2l5-4.3C200.2,147.8,200.3,145.7,199,144.4z"/>
	<path class="st28" d="M181.5,124.1l-0.8,0.6l14.4,14.8c0.2,0.2,0.3,0.4,0.3,0.6c0,0.3-0.1,0.5-0.3,0.7l-9.9,8.5
		c-0.2,0.2-0.4,0.2-0.7,0.2c-0.3,0-0.5-0.1-0.7-0.3l-14.4-14.8c-0.2-0.2-0.3-0.4-0.3-0.6c0-0.3,0.1-0.5,0.3-0.7l9.9-8.5
		c0.2-0.2,0.4-0.2,0.7-0.2c0.3,0,0.5,0.1,0.7,0.3L181.5,124.1l0.7-0.6c-0.6-0.6-1.4-0.9-2.2-0.9c-0.7,0-1.5,0.2-2,0.7l-9.9,8.5
		c-0.6,0.6-1,1.3-1,2.1c0,0.7,0.3,1.4,0.8,1.9l14.4,14.8c0.6,0.6,1.4,0.9,2.2,0.9c0.7,0,1.5-0.2,2-0.7l9.9-8.5c0.6-0.6,1-1.3,1-2.1
		c0-0.7-0.3-1.4-0.8-1.9l-14.4-14.8L181.5,124.1z"/>
	<path class="st33" d="M135.6,217.7h18v-15.5h-18V217.7z"/>
	<path class="st28" d="M134.5,192.3v9h-9.8c-0.6,0-1,0.4-1,1c0,0.5,0.5,1,1,1h10.8c0.3,0,0.5-0.1,0.7-0.3c0.2-0.2,0.3-0.4,0.3-0.7
		v-10c0-0.5-0.5-1-1-1C135,191.3,134.5,191.7,134.5,192.3z"/>
	<path class="st34" d="M729.8,43h18V27.6h-18V43z"/>
	<path class="st28" d="M728.8,17.6v9h-9.8c-0.6,0-1,0.4-1,1c0,0.5,0.5,1,1,1h10.8c0.3,0,0.5-0.1,0.7-0.3c0.2-0.2,0.3-0.4,0.3-0.7
		v-10c0-0.5-0.5-1-1-1C729.3,16.6,728.8,17.1,728.8,17.6z"/>
	<path class="st28" d="M242,122.3c-34.1-13.3-66.7-19.5-95.3-19.5c-29.3,0-54.3,6.5-72,18.9c-17.7,12.3-28.2,30.4-28.1,53.2
		c0,27.2,14.8,61.1,49.1,100.1c34.4,39,88.3,83.2,167,131.1c28.1,17.1,70.7,23,70.7,23c0.6,0.1,1.1-0.3,1.2-0.8
		c0.1-0.5-0.3-1-0.9-1.1c0,0-0.7-0.1-1.9-0.3c-8.5-1.3-44-7.8-68.1-22.4c-78.5-47.8-132.3-91.9-166.5-130.7
		c-34.2-38.8-48.7-72.3-48.7-98.9c0-22.2,10-39.7,27.3-51.7c17.3-12,41.8-18.5,70.8-18.5c28.2,0,60.7,6.2,94.5,19.3
		c0.5,0.2,1.1,0,1.3-0.5C242.8,123,242.5,122.5,242,122.3z"/>
	<path class="st28" d="M75,128.1c0,2.8-2.4,5-5.3,5c-2.9,0-5.3-2.2-5.3-5c0-2.8,2.4-5,5.3-5C72.6,123,75,125.3,75,128.1z"/>
	<path class="st28" d="M35.7,100.6l0.7,0.7l5.3-4.8l12.4,6.7l5.9,17.2l-18.1-7.1l-5.2-13L35.7,100.6l0.7,0.7L35.7,100.6l-0.9,0.3
		l5.4,13.4c0.1,0.2,0.3,0.4,0.6,0.5l20.6,8.1c0.4,0.1,0.8,0.1,1.1-0.2c0.3-0.3,0.4-0.6,0.3-1l-6.7-19.5c-0.1-0.2-0.2-0.4-0.5-0.5
		L42,94.5c-0.4-0.2-0.9-0.2-1.2,0.1L35,99.9c-0.3,0.3-0.4,0.7-0.2,1L35.7,100.6z"/>
	<path class="st28" d="M41.5,95.3l-0.7-0.7l-5,4.5l-2-2.2l4.2-3.8l2.8,2.8L41.5,95.3l-0.7-0.7L41.5,95.3l0.7-0.7l-3.5-3.5
		c-0.2-0.2-0.4-0.3-0.7-0.3c-0.3,0-0.5,0.1-0.7,0.3l-5.6,5c-0.4,0.3-0.4,0.9-0.1,1.3l3.3,3.7c0.2,0.2,0.4,0.3,0.7,0.3
		c0.3,0,0.6-0.1,0.8-0.3l5.8-5.3c0.4-0.4,0.4-1,0-1.3L41.5,95.3z"/>
	<path class="st28" d="M62.4,121.4L49,107.6c-0.4-0.4-1-0.4-1.4-0.1c-0.4,0.4-0.4,1-0.1,1.3l13.4,13.8c0.4,0.4,1,0.4,1.4,0.1
		C62.8,122.4,62.8,121.8,62.4,121.4z"/>
	<path class="st0" d="M94.1,472.6l14.5,70.3c0.3,1.5,1.9,2.5,3.6,2.2l15.1-3c1.6-0.3,2.6-1.7,2.3-3.2l-13-70.8
		c-0.3-1.6-1.9-2.6-3.6-2.3l-16.7,3.5C94.8,469.7,93.8,471.1,94.1,472.6z"/>
	<path class="st28" d="M94.1,472.6l-1,0.2l14.5,70.3c0.4,1.8,2,3,3.9,3c0.3,0,0.6,0,0.8-0.1l15.1-3c1.9-0.4,3.2-1.9,3.2-3.7
		c0-0.2,0-0.4-0.1-0.6l-13-70.8c-0.3-1.8-2-3.1-3.9-3.1c-0.3,0-0.6,0-0.9,0.1l-16.7,3.5c-1.9,0.4-3.1,1.9-3.1,3.7
		c0,0.2,0,0.5,0.1,0.7L94.1,472.6l1-0.2l0-0.4c0-0.9,0.6-1.6,1.5-1.8l16.7-3.5l0.4,0c0.9,0,1.8,0.6,1.9,1.5l13,70.8l0,0.3
		c0,0.9-0.6,1.6-1.6,1.8l-15.1,3l-0.4,0c-0.9,0-1.8-0.6-1.9-1.5l-14.5-70.3L94.1,472.6z"/>
	<path class="st33" d="M98.8,474l4.1,16.4l13.4-1.9l-2.9-17.8L98.8,474z"/>
	<path class="st34" d="M104.4,496.6l3.3,17.4l12.3-1.9l-3.1-17.7L104.4,496.6z"/>
	<path class="st27" d="M108.4,520.2l4.1,16.4l11.2-2l-2.7-16.9L108.4,520.2z"/>
	<path class="st28" d="M510.3,648.9l0.3,0.9l60.5-15.2l1.7,4.4l-60.1,14.6l-1.4-5L510.3,648.9l0.3,0.9L510.3,648.9l-1,0.2l1.7,6
		c0.1,0.5,0.7,0.8,1.2,0.7l62.1-15.1c0.3-0.1,0.5-0.2,0.6-0.5c0.1-0.2,0.2-0.5,0.1-0.8l-2.3-6.3c-0.2-0.5-0.7-0.7-1.2-0.6L510.1,648
		c-0.5,0.1-0.9,0.7-0.7,1.2L510.3,648.9z"/>
	<path class="st28" d="M500.8,641.1l1.8,5.2c0.2,0.5,0.7,0.8,1.3,0.6c0.5-0.2,0.8-0.7,0.7-1.2l-1.8-5.2c-0.2-0.5-0.7-0.8-1.3-0.6
		C501,640.1,500.7,640.6,500.8,641.1z"/>
	<path class="st28" d="M500.4,645.1l5.2-1.7c0.5-0.2,0.8-0.7,0.6-1.2c-0.2-0.5-0.8-0.8-1.3-0.6l-5.2,1.7c-0.5,0.2-0.8,0.7-0.6,1.2
		C499.3,645.1,499.9,645.3,500.4,645.1z"/>
	<path class="st28" d="M497.9,661.1l3.3,9.9c0.2,0.5,0.7,0.8,1.3,0.6c0.5-0.2,0.8-0.7,0.7-1.2l-3.3-9.9c-0.2-0.5-0.7-0.8-1.3-0.6
		C498,660.1,497.7,660.6,497.9,661.1z"/>
	<path class="st28" d="M496.3,668l9.2-2.8c0.5-0.2,0.8-0.7,0.7-1.2c-0.2-0.5-0.7-0.8-1.3-0.6l-9.2,2.8c-0.5,0.2-0.8,0.7-0.7,1.2
		C495.2,667.9,495.8,668.2,496.3,668z"/>
	<path class="st28" d="M483.8,644.8l4.4,13.1c0.2,0.5,0.7,0.8,1.3,0.6c0.5-0.2,0.8-0.7,0.7-1.2l-4.4-13.1c-0.2-0.5-0.7-0.8-1.3-0.6
		C484,643.8,483.7,644.3,483.8,644.8z"/>
	<path class="st28" d="M480.8,653.6l12.9-3.9c0.5-0.2,0.8-0.7,0.7-1.2c-0.2-0.5-0.7-0.8-1.3-0.6l-12.9,3.9c-0.5,0.2-0.8,0.7-0.7,1.2
		C479.7,653.5,480.2,653.7,480.8,653.6z"/>
	<path class="st28" d="M62.4,22.2l0.3-0.6L24.4,5.4l1.1-3l37.8,16.3L61.8,22L62.4,22.2l0.3-0.6L62.4,22.2l0.6,0.3l1.8-3.7
		c0.2-0.3,0-0.7-0.3-0.8L25.4,1l-0.5,0l-0.4,0.4l-1.6,4.2c-0.1,0.3,0,0.7,0.4,0.8l38.9,16.5c0.3,0.1,0.7,0,0.9-0.3L62.4,22.2z"/>
	<path class="st28" d="M63.8,30.1l1.4-3.4c0.1-0.3,0-0.7-0.4-0.8c-0.3-0.1-0.7,0-0.9,0.4l-1.4,3.4c-0.1,0.3,0,0.7,0.4,0.8
		C63.3,30.6,63.7,30.4,63.8,30.1z"/>
	<path class="st28" d="M65.9,28.2L62.4,27c-0.4-0.1-0.7,0-0.9,0.4c-0.1,0.3,0,0.7,0.4,0.8l3.4,1.2c0.4,0.1,0.7,0,0.9-0.4
		C66.4,28.6,66.2,28.3,65.9,28.2z"/>
	<path class="st28" d="M74.4,20.9l2.7-6.5c0.1-0.3,0-0.7-0.4-0.8c-0.3-0.1-0.7,0-0.9,0.4l-2.7,6.5c-0.1,0.3,0,0.7,0.4,0.8
		C73.9,21.4,74.3,21.2,74.4,20.9z"/>
	<path class="st28" d="M78.4,17.9l-6-2.2c-0.3-0.1-0.7,0-0.9,0.4c-0.1,0.3,0,0.7,0.4,0.8l6,2.3c0.4,0.1,0.7,0,0.9-0.4
		C78.9,18.4,78.7,18.1,78.4,17.9z"/>
	<path class="st28" d="M74.3,34.9l3.7-8.5c0.1-0.3,0-0.7-0.4-0.8c-0.3-0.1-0.7,0-0.9,0.4l-3.7,8.5c-0.1,0.3,0,0.7,0.4,0.8
		C73.8,35.4,74.2,35.3,74.3,34.9z"/>
	<path class="st28" d="M79.9,31.6l-8.5-3.1c-0.3-0.1-0.7,0-0.9,0.4c-0.1,0.3,0,0.7,0.4,0.8l8.5,3.1c0.3,0.1,0.7,0,0.9-0.4
		C80.4,32.1,80.2,31.7,79.9,31.6z"/>
	<path class="st34" d="M207.7,330.5c-27.4-18.5-54.3-47.3-42.5-76.9c0,0,18.9-11.8,48.8,3c29.9,14.8,29.9,14.8,29.9,14.8
		L207.7,330.5z"/>
	<path class="st0" d="M195.3,453.9c-12.3-5.5-65-31.2-74.3-75.2c-8.1-38,22.8-89.2,38.3-111.8c-1,30,31.1,55.5,46.6,65.9
		c15.7,10.6,27.2,15.8,43.2,21.4L195.3,453.9z"/>
	<path class="st34" d="M165.2,253.6c0,0-58.3,73.9-47.2,125.7c11,51.7,78.7,78.4,78.7,78.4l56.7-105c-17.7-6.1-29.2-11.1-45.7-22.2
		C180.3,312,153.4,283.2,165.2,253.6z M156.9,275.9c3.4,20,19.6,40.7,47.2,59.3c14.9,10.1,26.1,15.3,40.7,20.6l-50.9,94.3
		c-15.5-7.3-61.4-31.8-70-71.9C116.8,344.8,140.9,300.6,156.9,275.9z"/>
	<path class="st28" d="M148.9,296.7c0,0.1,0.9,7.6,5.7,17.1c4.9,9.5,13.8,21.1,29.8,29.2c0.5,0.3,1.1,0.1,1.4-0.4
		c0.3-0.5,0.1-1-0.4-1.3c-15.6-7.8-24.2-19.1-28.9-28.3c-2.4-4.6-3.8-8.8-4.6-11.8c-0.4-1.5-0.7-2.7-0.8-3.5
		c-0.1-0.4-0.1-0.7-0.2-0.9c0-0.2,0-0.3,0-0.3c-0.1-0.5-0.6-0.9-1.1-0.8C149.2,295.7,148.8,296.2,148.9,296.7z"/>
	<path class="st28" d="M201.3,353.7l31.6,15.9c0.5,0.2,1.1,0.1,1.4-0.4c0.3-0.5,0.1-1-0.4-1.3L202.3,352c-0.5-0.2-1.1-0.1-1.4,0.4
		C200.7,352.8,200.8,353.4,201.3,353.7z"/>
	<path class="st28" d="M153.5,339.4c0.1,0.1,10.4,21.6,43.4,35.5c0.5,0.2,1.1,0,1.3-0.5c0.2-0.5,0-1-0.5-1.3
		c-16.2-6.8-26.8-15.5-33.4-22.4c-3.3-3.5-5.5-6.5-7-8.7c-0.7-1.1-1.2-1.9-1.6-2.5c-0.2-0.3-0.3-0.5-0.4-0.7l-0.1-0.2l0,0
		c-0.2-0.5-0.8-0.7-1.3-0.5C153.5,338.4,153.2,338.9,153.5,339.4z"/>
	<path class="st28" d="M127.4,342.3c0,0.1,0.3,5.7,2.6,12.3c2.3,6.6,6.6,14.3,14.9,18.2c0.5,0.2,1.1,0,1.4-0.4c0.2-0.5,0-1-0.5-1.3
		c-7.5-3.5-11.7-10.7-13.9-17.1c-1.1-3.2-1.7-6.2-2.1-8.3c-0.2-1.1-0.3-2-0.3-2.6c0-0.3,0-0.5-0.1-0.7l0-0.2c0-0.5-0.5-0.9-1.1-0.9
		C127.8,341.3,127.4,341.7,127.4,342.3z"/>
	<path class="st28" d="M163.5,264.7c0,0,0,0.4,0,1.2c0,5.8,2.5,32.3,43.5,65.4c0.4,0.3,1.1,0.3,1.4-0.1c0.4-0.4,0.3-1-0.1-1.3
		c-40.7-32.8-42.8-58.7-42.8-64c0-0.3,0-0.6,0-0.7l0-0.2l0,0c0.1-0.5-0.4-1-0.9-1C164.1,263.8,163.6,264.2,163.5,264.7z"/>
	<path class="st28" d="M181.6,271L181.6,271c0.1,0,0.3,0,0.6,0c2.9,0,16.3,0.7,34.9,13.6c0.5,0.3,1.1,0.2,1.4-0.2
		c0.3-0.4,0.2-1-0.2-1.3c-18.9-13.1-32.8-14-36.1-14c-0.5,0-0.7,0-0.8,0c-0.6,0-1,0.5-0.9,1C180.5,270.7,181,271.1,181.6,271
		L181.6,271z"/>
	<path class="st28" d="M111.4,361.4c-0.1,1.2-0.1,2.6-0.1,4.2c0,9.2,1.9,25.5,13,43.2c11.1,17.7,31.4,36.9,68,52
		c0.5,0.2,1.1,0,1.3-0.5c0.2-0.5,0-1-0.5-1.3c-36.3-15-56.2-33.9-67.1-51.2c-10.9-17.3-12.7-33.2-12.7-42.2c0-1.6,0.1-2.9,0.1-4.1
		c0-0.5-0.4-1-1-1C111.9,360.4,111.5,360.8,111.4,361.4z"/>
	<path class="st38" d="M618.8,332.8l-33.6,63.3c0,0,22.8,7.9,5,32.4c0,0,42.2,16.4,69.8-26.2C687.5,359.7,618.8,332.8,618.8,332.8z"
		/>
	<path class="st0" d="M541.9,526.3c-17,0-35-6.5-53.4-19.4l62.9-97.9l37.4,22.1l0.2,0.1c0.3,0.1,8.7,3.3,20.4,3.3h0
		c9.5,0,21.4-2.1,33-9.8l-46,73.9C596.4,498.8,576.6,526.3,541.9,526.3L541.9,526.3z"/>
	<path class="st39" d="M660,402.3c-15.6,24.1-35.8,29.3-50.5,29.3c-11.3,0-19.3-3.1-19.3-3.1L550.4,405l-66,102.6
		c22.1,16,41.3,21.5,57.5,21.5c36.8,0,57.2-29.1,57.2-29.1L660,402.3z M552.4,413l34.6,20.4l0.4,0.3l0.5,0.2
		c0.4,0.1,9.2,3.5,21.6,3.5c7.2,0,15.8-1.1,24.6-4.8L593.9,497c-1.3,1.8-19.9,26.4-52.1,26.4c-15.7,0-32.3-5.8-49.4-17.3L552.4,413z
		"/>
	<path class="st28" d="M584.9,397l0.1,0c0.6,0.2,3.7,1.4,6.5,3.8c2.8,2.4,5.4,5.8,5.5,10.7c0,4.2-1.9,9.6-7.6,16.4
		c-0.3,0.4-0.3,1,0.2,1.3c0.4,0.3,1.1,0.3,1.4-0.2c5.8-7,8-12.8,8-17.6c0-6-3.4-10.1-6.8-12.7c-3.3-2.6-6.6-3.7-6.7-3.7
		c-0.5-0.2-1.1,0.1-1.3,0.6C584.1,396.3,584.3,396.8,584.9,397z"/>
	<path class="st28" d="M548.9,403.5c0,0,8.5,7.3,19.4,14.7c5.5,3.7,11.5,7.3,17.4,10.1c5.9,2.8,11.7,4.7,16.7,4.7l0.2,0
		c9.5-0.1,19.9-1.2,29.7-5c9.7-3.8,18.7-10.3,25.4-21.1c0.3-0.5,0.1-1-0.4-1.3c-0.5-0.3-1.1-0.1-1.4,0.3
		c-6.4,10.4-15,16.6-24.4,20.3c-9.4,3.7-19.5,4.8-28.9,4.9l-0.2,0c-4.5,0-10-1.8-15.8-4.5c-8.7-4.1-17.8-10.2-24.7-15.3
		c-3.5-2.6-6.4-4.9-8.4-6.5c-1-0.8-1.8-1.5-2.4-2c-0.6-0.5-0.8-0.7-0.8-0.7c-0.4-0.4-1.1-0.3-1.4,0.1
		C548.4,402.6,548.5,403.2,548.9,403.5z"/>
	<path class="st28" d="M553.1,441.6c0.1,0,17.6,14.7,39.7,14.8c3.5,0,7.2-0.4,10.9-1.3c0.5-0.1,0.9-0.7,0.7-1.2
		c-0.1-0.5-0.7-0.8-1.2-0.7c-3.5,0.8-7,1.2-10.4,1.2c-10.6,0-20.2-3.6-27.1-7.1c-3.5-1.8-6.3-3.6-8.2-4.9c-1-0.7-1.7-1.2-2.2-1.6
		c-0.3-0.2-0.4-0.3-0.6-0.4l-0.2-0.2c-0.4-0.3-1.1-0.3-1.4,0.1C552.6,440.6,552.7,441.2,553.1,441.6z"/>
	<path class="st28" d="M577.8,470.8c0.1,0.1,6,4.2,15.3,4.2c4.4,0,9.6-0.9,15.3-3.6c0.5-0.2,0.7-0.8,0.4-1.3
		c-0.3-0.5-0.9-0.7-1.4-0.4c-5.4,2.6-10.2,3.4-14.3,3.4c-4.4,0-7.9-1-10.3-1.9c-1.2-0.5-2.2-1-2.8-1.3c-0.3-0.2-0.6-0.3-0.7-0.4
		l-0.2-0.1l0,0c-0.4-0.3-1.1-0.2-1.4,0.2C577.3,469.9,577.3,470.5,577.8,470.8z"/>
	<path class="st28" d="M521.1,482.8c0.1,0.1,16.4,15.3,43.8,15.3c9,0,19.3-1.7,30.5-6c0.5-0.2,0.8-0.8,0.5-1.2
		c-0.2-0.5-0.8-0.7-1.3-0.5c-11,4.3-20.9,5.9-29.7,5.9c-13.3,0-23.9-3.7-31.2-7.4c-3.6-1.8-6.4-3.7-8.3-5.1
		c-0.9-0.7-1.7-1.3-2.1-1.7c-0.2-0.2-0.4-0.4-0.5-0.5l-0.2-0.2c-0.4-0.4-1-0.4-1.4,0C520.7,481.8,520.7,482.4,521.1,482.8z"/>
	<path class="st28" d="M536.6,457c0,0,2.9,2,6.7,4.2c3.8,2.3,8.6,4.9,12.3,6.2c0.5,0.2,1.1-0.1,1.3-0.6c0.2-0.5-0.1-1-0.6-1.2
		c-3.5-1.2-8.2-3.7-11.9-6c-1.9-1.1-3.6-2.2-4.7-2.9c-1.2-0.8-1.9-1.2-1.9-1.2c-0.5-0.3-1.1-0.2-1.4,0.2
		C536.1,456.1,536.2,456.7,536.6,457z"/>
	<path class="st28" d="M624.3,352.1L624.3,352.1c0.7,0.2,7.1,2.4,13.6,8.3c6.5,5.9,13.2,15.6,14.7,30.9c0.1,0.5,0.5,0.9,1.1,0.9
		c0.6,0,1-0.5,0.9-1c-1.6-16.3-9-26.6-16-32.7c-7-6.1-13.6-8.2-13.7-8.2c-0.5-0.2-1.1,0.1-1.3,0.6
		C623.5,351.4,623.8,351.9,624.3,352.1z"/>
	<path class="st28" d="M636.8,391.4L636.8,391.4c0.4,0.5,3.3,5.3,3.3,12c0,6-2.4,13.7-11.4,21.5c-0.4,0.4-0.4,1-0.1,1.3
		c0.4,0.4,1,0.4,1.4,0.1c9.4-8.1,12.1-16.4,12.1-22.9c0-7.7-3.6-13-3.7-13c-0.3-0.4-0.9-0.6-1.4-0.3
		C636.6,390.4,636.5,391,636.8,391.4z"/>
	<path class="st28" d="M486.1,513.2c0.1,0,26.1,21,57.6,21.1c18.4,0,38.7-7.3,56.2-30.1c0.3-0.4,0.2-1-0.2-1.3
		c-0.5-0.3-1.1-0.2-1.4,0.2c-17.3,22.4-36.8,29.3-54.6,29.3c-15.3,0-29.3-5.1-39.6-10.3c-5.1-2.6-9.3-5.2-12.2-7.1
		c-1.4-1-2.6-1.8-3.3-2.3c-0.4-0.3-0.7-0.5-0.9-0.6c-0.2-0.1-0.3-0.2-0.3-0.2c-0.4-0.3-1.1-0.3-1.4,0.1
		C485.7,512.2,485.7,512.8,486.1,513.2L486.1,513.2z"/>
	<path class="st33" d="M16.9,314h15.2c0.6,0,1-0.4,1-1c0-0.5-0.5-1-1-1H16.9c-0.6,0-1,0.4-1,1C15.9,313.6,16.3,314,16.9,314z"/>
	<path class="st33" d="M862.3,142.6h15.2c0.6,0,1-0.4,1-1c0-0.5-0.5-1-1-1h-15.2c-0.6,0-1,0.4-1,1
		C861.3,142.2,861.8,142.6,862.3,142.6z"/>
	<path class="st34" d="M455.3,44.8h15.2v-1.9h-15.2V44.8z"/>
	<path class="st34" d="M891.1,216.5l14.9,2.5l0.4-1.9l-14.9-2.5L891.1,216.5z"/>
	<path class="st27" d="M295.1,572.1h15.2c0.6,0,1-0.4,1-1c0-0.5-0.5-1-1-1h-15.2c-0.6,0-1,0.4-1,1
		C294.1,571.7,294.6,572.1,295.1,572.1z"/>
	<defs>
		<filter id="Adobe_OpacityMaskFilter" filterUnits="userSpaceOnUse" x="818.9" y="578.4" width="94" height="120.6">
			<feColorMatrix  type="matrix" values="1 0 0 0 0  0 1 0 0 0  0 0 1 0 0  0 0 0 1 0"/>
		</filter>
	</defs>
	<mask maskUnits="userSpaceOnUse" x="818.9" y="578.4" width="94" height="120.6" id="mask0_3_">
		<path class="st40" d="M818.9,438H922v261H818.9V438z"/>
	</mask>
	<g class="st43">
		<path class="st28" d="M906,684.4c-2.8-0.8-4.4-3.6-3.5-6.3c0.9-2.6,3.9-4.1,6.7-3.3c2.8,0.8,4.4,3.7,3.5,6.3
			C911.8,683.8,908.8,685.2,906,684.4z"/>
		<path class="st28" d="M880.4,578.4c-20.6,21.3-35.9,42-46.2,59.9c-10.2,17.9-15.4,33-15.4,43.5c0,3.5,0.6,6.6,1.8,9
			c1.2,2.4,3.2,4.2,5.7,5.1c5.9,2.2,12.4,3.1,18.9,3.1c14.7,0,30-4.5,41.7-9.1c11.7-4.5,19.6-9,19.7-9c0.5-0.3,0.6-0.9,0.3-1.3
			c-0.3-0.5-0.9-0.6-1.4-0.3c0,0-0.1,0.1-0.4,0.2c-1.8,1-10,5.4-21.3,9.6c-11.2,4.2-25.3,8.1-38.7,8.1c-6.3,0-12.5-0.9-18.1-3
			c-2.1-0.8-3.6-2.2-4.7-4.2c-1.1-2.1-1.6-4.8-1.6-8.1c0-9.9,5-24.8,15.1-42.6L880.4,578.4z"/>
	</g>
</g>
</svg>
