<?xml version="1.0" encoding="utf-8"?>
<!-- Generator: Adobe Illustrator 22.0.0, SVG Export Plug-In . SVG Version: 6.00 Build 0)  -->
<svg version="1.1" id="Layer_1" xmlns="http://www.w3.org/2000/svg" xmlns:xlink="http://www.w3.org/1999/xlink" x="0px" y="0px"
	 viewBox="0 0 82 82" style="enable-background:new 0 0 82 82;" xml:space="preserve">
<style type="text/css">
	.st0{fill:#E1F0E5;}
	.st1{fill:#38AA56;}
</style>
<path class="st0" d="M71.3,82H10.7C4.8,82,0,77.2,0,71.3V10.7C0,4.8,4.8,0,10.7,0h60.7C77.2,0,82,4.8,82,10.7v60.7
	C82,77.2,77.2,82,71.3,82z"/>
<g>
	<path class="st1" d="M46.3,16.8c0.3,0.1,0.6,0.2,0.9,0.3c2.4,0.7,3.9,2.8,3.9,5.2c0,4.1,0,8.1,0,12.2c0,1-0.7,1.7-1.5,1.7
		c-0.9,0-1.5-0.7-1.5-1.7c0-3.9,0-7.8,0-11.8c0-2-1-3-3-3c-7.5,0-15,0-22.5,0c-1.8,0-2.8,1-2.8,2.9c0,10.2,0,20.5,0,30.6
		c0,1.8,1,2.9,2.8,2.9c4.2,0,8.4,0,12.5,0c1.1,0,1.9,1,1.5,2c-0.3,0.6-0.8,1-1.5,1c-3.5,0-7,0-10.4,0c-1,0-2.2,0.1-3.2-0.1
		c-2.4-0.3-4.2-2.1-4.7-4.5c0-0.1-0.1-0.2-0.1-0.2c0-10.9,0-21.8,0-32.7c0-0.1,0.1-0.2,0.1-0.3c0.4-1.9,1.5-3.2,3.2-4
		c0.4-0.2,1-0.3,1.5-0.4C29.9,16.8,38,16.8,46.3,16.8z"/>
	<path class="st1" d="M39,52.1C39,44.8,44.8,39,52.1,39c7.2,0,13.1,5.9,13.1,13.1c0,7.2-5.9,13.1-13.1,13.1
		C44.8,65.2,39,59.3,39,52.1z M52.1,42c-5.6,0-10.1,4.4-10.1,10s4.5,10.1,10.1,10.1s10.1-4.5,10.1-10C62.2,46.6,57.7,42,52.1,42z"/>
	<path class="st1" d="M33.9,32.9c3.1,0,6.4,0,9.5,0c1.1,0,1.8,0.9,1.6,1.9c-0.2,0.6-0.6,1-1.2,1c-0.2,0-0.4,0-0.6,0
		c-6.2,0-12.3,0-18.5,0c-0.2,0-0.3,0-0.5,0c-0.8-0.1-1.4-0.8-1.3-1.6c0.1-0.8,0.7-1.4,1.5-1.4c2.1,0,4.3,0,6.4,0
		C31.8,32.9,32.9,32.9,33.9,32.9z"/>
	<path class="st1" d="M29.9,44c-1.8,0-3.7,0-5.5,0c-1.2,0-1.9-1.3-1.3-2.3c0.3-0.4,0.7-0.7,1.3-0.7c3.7,0,7.4,0,11.1,0
		c0.9,0,1.5,0.7,1.5,1.5c0,0.9-0.6,1.5-1.6,1.5C33.6,44,31.8,44,29.9,44z"/>
	<path class="st1" d="M28.9,27.9c-1.6,0-3,0-4.6,0c-0.7,0-1.3-0.5-1.5-1.2c-0.1-0.7,0.3-1.4,1-1.7c0.2-0.1,0.4-0.1,0.7-0.1
		c3,0,5.9,0,8.8,0c1,0,1.7,0.7,1.7,1.6c0,0.9-0.7,1.5-1.7,1.5C31.9,27.9,30.4,27.9,28.9,27.9L28.9,27.9z"/>
	<path class="st1" d="M53.6,53.6c0,1.4,0,2.8,0,4.1c0,0.7-0.5,1.2-1.1,1.4s-1.3-0.2-1.7-0.7c-0.2-0.3-0.3-0.6-0.3-1
		c0-1.1,0-2.2,0-3.3c0-0.2,0-0.3,0-0.5c-0.9,0-1.7,0-2.6,0c-0.4,0-1,0-1.4,0c-0.9,0-1.5-0.6-1.5-1.5s0.6-1.5,1.5-1.6
		c0.8,0,1.6,0,2.4,0c0.5,0,1,0,1.7,0c0-0.5,0-1,0-1.6c0-0.8,0-1.6,0-2.4c0-0.9,0.7-1.6,1.5-1.6c0.9,0,1.5,0.6,1.5,1.6
		c0,1.1,0,2.3,0,3.4c0,0.2,0,0.3,0,0.5c0.2,0,0.3,0,0.5,0c1.1,0,2.3,0,3.5,0c0.9,0,1.5,0.5,1.6,1.3c0.1,0.7-0.3,1.4-1,1.7
		c-0.3,0.1-0.4,0.1-0.7,0.1c-1,0-2.2,0-3.2,0C54,53.6,53.8,53.6,53.6,53.6z"/>
</g>
</svg>
