<?xml version="1.0" encoding="utf-8"?>
<!-- Generator: Adobe Illustrator 22.0.0, SVG Export Plug-In . SVG Version: 6.00 Build 0)  -->
<svg version="1.1" id="Layer_1" xmlns="http://www.w3.org/2000/svg" xmlns:xlink="http://www.w3.org/1999/xlink" x="0px" y="0px"
	 viewBox="0 0 94 94" style="enable-background:new 0 0 94 94;" xml:space="preserve">
<style type="text/css">
	.st0{fill:#E3F8FC;}
	.st1{fill:#5FC7E0;}
</style>
<path class="st0" d="M81.6,93.7H12.4c-6.7,0-12.1-5.4-12.1-12.1V12.4c0-6.7,5.4-12.1,12.1-12.1h69.2c6.7,0,12.1,5.4,12.1,12.1v69.2
	C93.7,88.3,88.3,93.7,81.6,93.7z"/>
<g>
	<path class="st1" d="M19.3,74.7c0.4-12.8,6.9-21.3,18.4-26.3c-0.8-0.7-1.7-1.4-2.4-2.3c-5.5-5.8-5.8-15-0.6-21.1
		c3.7-4.4,8.4-6.3,14.1-5.7c6.8,0.7,12.6,6,13.9,12.7c1.5,7.5-2.4,14.9-9.5,18c-2.1,0.9-4.3,1.3-6.6,1.3c-4.5,0.1-8.6,1.3-12.3,3.7
		c-6,4-9.6,9.5-10.5,16.7c-0.1,1-0.1,2-0.2,3C22.2,74.7,20.7,74.7,19.3,74.7z M58.7,35.3c0-6.4-5.3-11.7-11.7-11.7
		c-6.4,0-11.7,5.3-11.7,11.7C35.3,41.7,40.6,47,47,47C53.4,47,58.7,41.7,58.7,35.3z"/>
	<path class="st1" d="M74.7,59.1c-3.2,3.2-6.5,6.4-9.7,9.7c-0.2,0.2-0.2,0.4-0.3,0.5c-1.1-1.1-2.1-2.1-3.2-3.2
		c1.6-1.6,3.2-3.2,4.9-4.9c-1.3,0-2.6,0-3.8,0c-5.2,0.1-9.2,4.2-9.3,9.4c0,1.4,0,2.8,0,4.2c-1.4,0-2.9,0-4.3,0
		c0.1-2.1,0-4.3,0.2-6.4c0.4-3.5,2.2-6.2,4.9-8.4c2.6-2.1,5.5-3.1,8.8-3c1,0,2.1,0,3.1,0c-1.6-1.6-3.1-3.1-4.7-4.7
		c1.1-1.1,2.1-2.1,3.2-3.2c0.1,0.1,0.3,0.2,0.4,0.4c3.1,3.1,6.2,6.2,9.3,9.3c0.1,0.1,0.3,0.2,0.4,0.4C74.7,59,74.7,59.1,74.7,59.1z"
		/>
</g>
</svg>
