<?xml version="1.0" encoding="utf-8"?>
<!-- Generator: Adobe Illustrator 22.0.0, SVG Export Plug-In . SVG Version: 6.00 Build 0)  -->
<svg version="1.1" id="Layer_1" xmlns="http://www.w3.org/2000/svg" xmlns:xlink="http://www.w3.org/1999/xlink" x="0px" y="0px"
	 viewBox="0 0 94 94" style="enable-background:new 0 0 94 94;" xml:space="preserve">
<style type="text/css">
	.st0{fill:#E3F8FC;}
	.st1{fill:#5FC7E0;}
</style>
<path class="st0" d="M81.6,93.7H12.4c-6.7,0-12.1-5.4-12.1-12.1V12.4c0-6.7,5.4-12.1,12.1-12.1h69.2c6.7,0,12.1,5.4,12.1,12.1v69.2
	C93.7,88.3,88.3,93.7,81.6,93.7z"/>
<g>
	<path class="st1" d="M13.1,47.7c0.4-0.7,1-1,1.8-0.9c2.3,0,4.7,0,7,0c1,0,1.6,0.5,1.6,1.3c0,0.8-0.6,1.4-1.6,1.4c-2.3,0-4.7,0-7,0
		c-0.8,0-1.4-0.2-1.8-0.9C13.1,48.2,13.1,47.9,13.1,47.7z"/>
	<path class="st1" d="M13.1,33.8c0.4-0.7,1-1,1.8-0.9c1.2,0.1,2.4,0,3.6,0c0.9,0,1.5,0.6,1.5,1.4c0,0.8-0.6,1.3-1.5,1.3
		c-1.2,0-2.4,0-3.6,0c-0.8,0-1.4-0.2-1.8-0.9C13.1,34.3,13.1,34,13.1,33.8z"/>
	<path class="st1" d="M49.4,24.1c0,0.3,0,0.5,0,0.7c0,7.4,0,14.7,0,22.1c0,1.9,0.9,3.2,2.5,3.7c0.4,0.1,0.8,0.1,1.2,0.1
		c7.5,0,14.9,0,22.4,0c0.2,0,0.3,0,0.7,0c-0.2-0.2-0.4-0.4-0.5-0.6c-2.9-2.9-5.9-5.9-8.8-8.8c-0.2-0.2-0.4-0.3-0.5-0.5
		c-0.4-0.5-0.3-1.2,0.2-1.7c0.4-0.4,1.1-0.5,1.6-0.1c0.2,0.1,0.4,0.3,0.5,0.5c3.9,3.9,7.7,7.7,11.6,11.6c1,1,1,1.6,0,2.6
		c-6.8,6.8-13.6,13.6-20.4,20.4c-1,1-1.5,1-2.5,0C46.8,63.7,36.4,53.3,26,42.9c-1-1-1-1.5,0-2.5c6.8-6.8,13.6-13.6,20.4-20.4
		c1-1,1.6-1,2.5,0c3.8,3.8,7.5,7.5,11.3,11.3c0.2,0.2,0.4,0.4,0.5,0.6c0.3,0.5,0.2,1.2-0.2,1.6c-0.4,0.4-1.2,0.5-1.6,0.1
		c-0.2-0.1-0.4-0.3-0.5-0.5c-2.8-2.8-5.6-5.6-8.4-8.4C49.8,24.5,49.6,24.3,49.4,24.1z M30.1,43c9,9,18,18,27,27c0-5.5,0-11,0-16.6
		c-0.3,0-0.5,0-0.8,0c-1.3,0-2.6,0-3.9,0c-2.7-0.1-5-2-5.5-4.7c-0.3-1.6-0.2-3.2-0.2-4.8c0-0.3,0-0.6,0-0.9C41,43,35.5,43,30.1,43z
		 M46.6,23.7c-5.5,5.5-11,11-16.5,16.5c5.4,0,11,0,16.5,0C46.6,34.7,46.6,29.2,46.6,23.7z M59.8,70.1c5.6-5.6,11.1-11.1,16.6-16.6
		c-5.5,0-11,0-16.6,0C59.8,59,59.8,64.6,59.8,70.1z"/>
	<path class="st1" d="M27.4,62.5c3,0,6,0,9,0c0.4,0,0.9,0.1,1.1,0.4c0.3,0.3,0.4,0.9,0.4,1.3c0,0.5-0.5,0.9-1,1c-0.2,0-0.4,0-0.5,0
		c-6,0-12,0-18,0c-0.1,0-0.2,0-0.3,0c-0.8,0-1.4-0.6-1.4-1.4c0-0.7,0.6-1.3,1.4-1.3c0.9,0,1.9,0,2.8,0C23,62.5,25.2,62.5,27.4,62.5z
		"/>
	<path class="st1" d="M27.2,54c1.2,0,2.3,0,3.5,0c0.9,0,1.5,0.5,1.5,1.3c0,0.8-0.6,1.3-1.5,1.3c-2.4,0-4.7,0-7.1,0
		c-0.9,0-1.5-0.6-1.5-1.3c0-0.8,0.6-1.3,1.5-1.3C24.8,54,26,54,27.2,54z"/>
	<path class="st1" d="M25.5,32.8c0.8,0,1.6,0,2.4,0c0.9,0,1.4,0.6,1.4,1.3c0,0.8-0.6,1.3-1.4,1.3c-1.6,0-3.2,0-4.8,0
		c-0.9,0-1.4-0.5-1.4-1.3c0-0.8,0.5-1.3,1.5-1.3C23.9,32.8,24.7,32.8,25.5,32.8z"/>
	<path class="st1" d="M27.4,48.1c0,0.7-0.6,1.3-1.3,1.3c-0.7,0-1.3-0.7-1.3-1.4c0-0.7,0.6-1.3,1.3-1.3
		C26.9,46.7,27.5,47.4,27.4,48.1z"/>
	<path class="st1" d="M63.6,37.8c-0.7,0-1.3-0.6-1.3-1.3c0-0.7,0.6-1.4,1.3-1.4c0.7,0,1.3,0.6,1.3,1.4
		C64.9,37.2,64.4,37.8,63.6,37.8z"/>
</g>
</svg>
