<?xml version="1.0" encoding="utf-8"?>
<!-- Generator: Adobe Illustrator 22.0.0, SVG Export Plug-In . SVG Version: 6.00 Build 0)  -->
<svg version="1.1" id="Layer_1" xmlns="http://www.w3.org/2000/svg" xmlns:xlink="http://www.w3.org/1999/xlink" x="0px" y="0px"
	 viewBox="0 0 82 82" style="enable-background:new 0 0 82 82;" xml:space="preserve">
<style type="text/css">
	.st0{fill:#E3F8FC;}
	.st1{fill:#5FC7E0;}
</style>
<path class="st0" d="M71.3,82H10.7C4.8,82,0,77.2,0,71.3V10.7C0,4.8,4.8,0,10.7,0h60.7C77.2,0,82,4.8,82,10.7v60.7
	C82,77.2,77.2,82,71.3,82z"/>
<g>
	<path class="st1" d="M62.9,41c0,5.6,0,11.3,0,16.9c0,3.8-2.5,6.8-6.1,7.4c-0.4,0.1-0.8,0.1-1.1,0.1c-6.5,0-12.9,0-19.4,0
		c-1.6,0-2.6-1.1-2.5-2.5c0.1-1.2,1.1-2.2,2.3-2.3c0.4,0,0.6,0,1,0c6.1,0,12.3,0,18.4,0c1,0,1.8-0.3,2.4-1.1c0.3-0.4,0.4-1,0.4-1.5
		c0-11.3,0-22.6,0-33.9c0-1.6-1.1-2.5-2.7-2.5c-6.3,0-12.7,0-19,0c-1.4,0-2.3-0.7-2.5-1.8c-0.4-1.4,0.7-2.9,2.2-3c0.2,0,0.3,0,0.4,0
		c6.4,0,12.8,0,19.1,0c3.6,0,6.5,2.3,7.3,5.7c0.2,0.6,0.2,1.2,0.2,1.8C62.9,29.8,62.9,35.4,62.9,41z"/>
	<path class="st1" d="M42.4,38.5c-0.3-0.3-0.4-0.4-0.5-0.6c-1.7-1.7-3.3-3.2-4.9-4.9c-1.1-1.1-1.1-2.5-0.1-3.5c1-1.1,2.5-1,3.6,0.1
		c3.2,3.2,6.4,6.4,9.6,9.6c1.1,1.1,1.1,2.5,0,3.6c-3.2,3.2-6.4,6.4-9.6,9.6c-1.1,1.1-2.5,1.1-3.5,0.1c-1-1-1-2.5,0.1-3.6
		c1.7-1.7,3.2-3.3,4.9-4.9c0.2-0.2,0.3-0.3,0.5-0.5c-0.4,0-0.5,0-0.8,0c-6.7,0-13.2,0-19.9,0c-1.4,0-2.4-0.7-2.6-1.9
		c-0.4-1.4,0.7-2.8,2.1-3c0.3,0,0.5,0,0.7,0c6.6,0,13.1,0,19.6,0C41.9,38.5,42.1,38.5,42.4,38.5z"/>
</g>
</svg>
