<?xml version="1.0" encoding="utf-8"?>
<!-- Generator: Adobe Illustrator 22.0.0, SVG Export Plug-In . SVG Version: 6.00 Build 0)  -->
<svg version="1.1" id="Layer_1" xmlns="http://www.w3.org/2000/svg" xmlns:xlink="http://www.w3.org/1999/xlink" x="0px" y="0px"
	 viewBox="0 0 82 82" style="enable-background:new 0 0 82 82;" xml:space="preserve">
<style type="text/css">
	.st0{fill:#ECF4FF;}
	.st1{fill:#428DFC;}
</style>
<path class="st0" d="M71.3,82H10.7C4.8,82,0,77.2,0,71.3V10.7C0,4.8,4.8,0,10.7,0h60.7C77.2,0,82,4.8,82,10.7v60.7
	C82,77.2,77.2,82,71.3,82z"/>
<g>
	<path class="st1" d="M16.4,38.8c0-0.1,0.1-0.1,0.1-0.2c0.6-2.7,3-4.4,5.8-4c2,0.3,3.7,1.1,5.3,2.2c0.3,0.2,0.5,0.3,0.8,0.1
		c0.3-0.2,0.5-0.4,0.5-0.8c-0.1-1.8,0-3.6,0.7-5.3c0.1-0.3,0.2-0.5,0.4-0.7c0.2-0.4,0.6-0.5,1-0.3c0.4,0.2,0.4,0.6,0.3,1
		c-0.3,0.7-0.6,1.4-0.7,2.1c-0.2,0.9-0.2,1.9-0.3,2.8c0.8-0.2,1.4-0.3,2-0.5c0.4-0.9,0.8-1.9,1.2-2.8c0.2-0.4,0.6-0.6,1-0.4
		c0.4,0.2,0.4,0.6,0.2,1.1c-0.3,0.8-0.6,1.5-0.9,2.3c-0.1,0.3,0,0.5,0.2,0.8c0.4,0.5,0.7,1,1.1,1.6c0.4-0.3,0.8-0.6,1.1-1
		c0.9-1.2,1.6-2.5,1.8-4c0.3-2.3-1.3-4.3-3.6-4.2c-0.4,0-0.8,0.2-1.2,0.3c-0.5,0.1-0.9,0-1-0.4c-0.1-0.4,0-0.7,0.5-0.9
		c2.8-1.2,6.1,0.6,6.6,3.7c0.2,1.3,0,2.6-0.5,3.9c-0.1,0.2-0.2,0.4-0.3,0.6c0.2-0.1,0.3-0.1,0.4-0.2c1.2-0.6,2.3-1.3,3.5-1.9
		c1.3-0.7,2.5-0.4,3.2,0.9c0.4,0.7,0.8,1.5,1.2,2.2c0.8,1.4,0.5,2.5-0.9,3.3c-3,1.7-6,3.3-8.9,5c-0.1,0.1-0.3,0.2-0.4,0.3
		c0.2,0,0.4,0,0.5,0c5.5,0,11.1,0,16.6,0c0.2,0,0.3,0,0.5,0c1,0.1,1.7,0.8,1.7,1.8c0,5.1,0,10.3,0,15.4c0,1.4-1,2.4-2.4,2.5
		c-0.2,0-0.3,0-0.5,0c-7.8,0-15.6,0-23.4,0c-0.3,0-0.7,0-1-0.1c-1.2-0.3-1.9-1.3-1.9-2.6c0-3.7,0-7.3,0-11c0-0.2,0-0.3,0-0.6
		c-1.2,0.7-2.3,1.3-3.4,1.9c-0.4,0.2-0.9,0.5-1.3,0.7c-1,0.5-2.2,0.2-2.8-0.8c-0.5-0.9-1-1.8-1.5-2.7c-0.6-1.1-0.2-2.2,0.9-2.9
		c1.2-0.7,2.4-1.3,3.6-2c0.1-0.1,0.3-0.2,0.4-0.2c-0.8-0.2-1.7-0.4-2.4-0.7c-1.8-0.7-3-2-3.4-3.9c0,0,0-0.1-0.1-0.1
		C16.4,39.7,16.4,39.2,16.4,38.8z M37,46.9c-1,0-1.9,0-2.9,0c-0.3,0-0.6,0.1-0.9,0.2c-1.6,0.9-3.3,1.8-4.9,2.7
		c-0.3,0.2-0.4,0.4-0.4,0.7c0,3.9,0,7.8,0,11.7c0,1.1,0.4,1.5,1.5,1.5c2.3,0,4.7,0,7,0c0.2,0,0.3,0,0.5,0c0-0.2,0-0.4,0-0.6
		c0-2.1,0-4.2,0-6.3c0-0.6,0.3-0.9,0.7-0.9c0.5,0,0.7,0.3,0.7,0.9c0,2.1,0,4.2,0,6.3c0,0.2,0,0.3,0,0.5c1.8,0,3.6,0,5.4,0
		c0-5.6,0-11.2,0-16.8c-1.8,0-3.6,0-5.4,0c0,0.2,0,0.3,0,0.5c0,1.9,0,3.8,0,5.8c0,0.5-0.3,0.8-0.7,0.8c-0.4,0-0.7-0.3-0.7-0.8
		c0-0.4,0-0.9,0-1.3C37,50.2,37,48.6,37,46.9z M45.3,63.7c0.1,0,0.2,0,0.3,0c2.5,0,4.9,0,7.4,0c0.9,0,1.3-0.4,1.3-1.4
		c0-4.9,0-9.9,0-14.8c0-0.6,0-0.7-0.7-0.7c-2.6,0-5.2,0-7.8,0c-0.2,0-0.3,0-0.5,0C45.3,52.5,45.3,58.1,45.3,63.7z M26.5,37.8
		c-1.6-1-3.3-1.9-5.3-1.8c-2,0.1-3.5,1.7-3.4,3.6c0.1,1.6,1,2.6,2.4,3.2c1.5,0.7,3.1,0.7,4.7,0.5c0.3,0,0.6-0.3,0.9-0.4
		c-0.3-0.7-0.6-1.2-0.8-1.8c-0.1-0.3-0.2-0.4-0.5-0.4c-0.8-0.1-1.5-0.3-2.3-0.4c-0.1,0-0.3,0-0.4-0.1c-0.4-0.1-0.6-0.4-0.6-0.8
		c0.1-0.4,0.4-0.7,0.8-0.6c1,0.1,2,0.3,2.9,0.5C25.5,38.8,26,38.3,26.5,37.8z M26.6,44.2c-0.1,0-0.1,0-0.1,0c-2.5,1.4-5,2.8-7.4,4.1
		c-0.5,0.3-0.6,0.6-0.3,1.1c0.4,0.8,0.9,1.5,1.3,2.3c0.4,0.6,0.6,0.7,1.3,0.4c2.2-1.2,4.3-2.4,6.5-3.6c0.3-0.2,0.6-0.3,0.9-0.5
		C28,46.7,27.3,45.4,26.6,44.2z M37.7,42.9c0.1,0,0.1,0,0.1,0c2.5-1.4,4.9-2.7,7.4-4.1c0.5-0.3,0.6-0.6,0.3-1.1
		c-0.4-0.8-0.8-1.5-1.3-2.3c-0.4-0.7-0.7-0.8-1.4-0.4c-2.3,1.3-4.6,2.6-7,3.9c-0.1,0.1-0.2,0.1-0.4,0.2C36.3,40.4,37,41.7,37.7,42.9
		z M27.8,43.5c0.7,1.3,1.4,2.6,2.1,3.8c2.2-1.2,4.3-2.4,6.5-3.6c-0.7-1.3-1.4-2.6-2.1-3.8C32.2,41,30,42.2,27.8,43.5z M33.6,38.6
		c-0.2-0.3-0.3-0.6-0.5-0.9c-0.1-0.1-0.1-0.3-0.2-0.4c-0.4-0.5-1-0.7-1.6-0.4c-1.5,0.8-2.9,1.6-4.4,2.4c-0.6,0.3-0.8,1-0.5,1.5
		c0.2,0.4,0.4,0.8,0.7,1.3C29.3,41,31.4,39.8,33.6,38.6z"/>
	<path class="st1" d="M63,44.3c-0.3-0.1-0.7-0.2-1.1-0.4c-0.9-0.5-1.7-0.5-2.6,0c-0.3,0.2-0.6,0.3-0.9,0.4c-0.8,0.2-1.3-0.2-1.3-1
		c0-0.7,0.1-1.3,0.2-2c0-0.2-0.1-0.5-0.2-0.6c-0.4-0.5-0.8-1-1.2-1.4c-0.6-0.8-0.4-1.4,0.6-1.7c0.6-0.1,1.1-0.2,1.7-0.4
		c0.2-0.1,0.5-0.3,0.6-0.5c0.3-0.5,0.6-1,0.9-1.5c0.5-0.8,1.3-0.8,1.8,0c0.3,0.5,0.6,1,0.9,1.5c0.1,0.2,0.4,0.4,0.6,0.5
		c0.6,0.2,1.2,0.3,1.8,0.5c0.9,0.3,1.1,0.9,0.5,1.6c-0.4,0.5-0.7,0.9-1.1,1.4c-0.2,0.3-0.3,0.5-0.3,0.9C64,42,64,42.6,64,43.2
		C64.1,43.9,63.7,44.3,63,44.3z M60.6,36.4c-0.4,0.6-0.7,1.3-1.2,1.6c-0.5,0.4-1.3,0.4-2,0.7c1.3,1,1.7,2.2,1.3,3.8
		c1.3-0.9,2.6-0.8,4,0c-0.4-1.6,0-2.8,1.3-3.8c-0.8-0.2-1.5-0.3-2-0.7C61.3,37.7,61,37,60.6,36.4z"/>
	<path class="st1" d="M43,26.2c0-0.5,0.1-1,0.1-1.4c0.1-0.4-0.1-0.7-0.3-0.9c-0.4-0.4-0.8-0.9-1.1-1.4c-0.5-0.7-0.3-1.3,0.5-1.6
		c0.6-0.2,1.2-0.3,1.9-0.5c0.2-0.1,0.5-0.3,0.6-0.5c0.3-0.5,0.6-1,0.9-1.5c0.5-0.9,1.3-0.9,1.8,0c0.4,0.6,0.7,1.4,1.2,1.8
		c0.5,0.4,1.4,0.4,2.1,0.6c1,0.3,1.2,0.9,0.5,1.7c-0.4,0.5-0.8,1-1.2,1.5c-0.1,0.2-0.2,0.4-0.2,0.6c0,0.6,0.1,1.3,0.2,1.9
		c0.1,0.9-0.5,1.4-1.4,1.1c-0.4-0.2-0.9-0.3-1.3-0.6c-0.5-0.3-1-0.3-1.5,0c-0.4,0.2-0.8,0.4-1.2,0.5c-1,0.4-1.5,0-1.4-1.1
		C43,26.4,43,26.3,43,26.2C43,26.2,43,26.2,43,26.2z M49.7,22.2c-0.8-0.3-1.5-0.3-2.1-0.7c-0.5-0.4-0.8-1.1-1.2-1.6
		c-0.4,0.6-0.7,1.3-1.2,1.6c-0.5,0.4-1.3,0.5-2,0.7c1.3,1,1.7,2.2,1.2,3.8c1.3-0.8,2.6-0.8,4,0C48,24.4,48.4,23.2,49.7,22.2z"/>
	<path class="st1" d="M57.9,24c-2,0-3.6-1.7-3.5-3.7c0-2,1.7-3.6,3.7-3.5c2,0,3.6,1.7,3.5,3.7C61.5,22.5,59.9,24,57.9,24z
		 M57.9,22.6c1.2,0,2.2-1,2.2-2.2c0-1.2-1-2.2-2.2-2.1c-1.2,0-2.1,1-2.1,2.2C55.8,21.6,56.7,22.6,57.9,22.6z"/>
	<path class="st1" d="M52.9,32.8c-0.1,2.5-0.2,5-1.3,7.4c-0.4,0.8-0.9,1.5-1.4,2.3c-0.2,0.3-0.7,0.3-1,0.1c-0.3-0.3-0.4-0.7-0.1-1
		c1.4-1.7,1.8-3.7,2.1-5.8c0.3-2.1,0.2-4.1,0.1-6.2c0-0.1,0-0.2,0-0.3c0-0.4,0.3-0.7,0.6-0.8c0.4,0,0.7,0.2,0.8,0.6
		c0.1,0.6,0.1,1.2,0.1,1.9C52.9,31.6,52.9,32.2,52.9,32.8z"/>
	<path class="st1" d="M65.6,24.1c0,0.4-0.3,0.6-0.7,0.7c-1.5,0.4-2.9,1.1-4,2.1c-1.5,1.3-2.5,3-3.1,4.9c0,0.1-0.1,0.2-0.1,0.4
		c-0.2,0.4-0.5,0.6-0.9,0.5c-0.4-0.1-0.6-0.5-0.5-0.9c0.3-0.9,0.7-1.9,1.1-2.7c1.6-2.9,3.9-4.8,7.1-5.6
		C65.2,23.3,65.6,23.6,65.6,24.1z"/>
</g>
</svg>
