<?xml version="1.0" encoding="utf-8"?>
<!-- Generator: Adobe Illustrator 22.0.0, SVG Export Plug-In . SVG Version: 6.00 Build 0)  -->
<svg version="1.1" id="Layer_1" xmlns="http://www.w3.org/2000/svg" xmlns:xlink="http://www.w3.org/1999/xlink" x="0px" y="0px"
	 viewBox="0 0 94 94" style="enable-background:new 0 0 94 94;" xml:space="preserve">
<style type="text/css">
	.st0{fill:#E3F8FC;}
	.st1{fill:#5FC7E0;}
</style>
<path class="st0" d="M81.6,93.7H12.4c-6.7,0-12.1-5.4-12.1-12.1V12.4c0-6.7,5.4-12.1,12.1-12.1h69.2c6.7,0,12.1,5.4,12.1,12.1v69.2
	C93.7,88.3,88.3,93.7,81.6,93.7z"/>
<g>
	<g>
		<path class="st1" d="M75.2,56.3c-0.5,1.5-1.5,2.3-3,2.6c-0.9,0.2-1.8,0.6-2.7,0.9c-0.3,0.1-0.6,0.3-0.8,0.6
			c-1.7,2.8-4.1,4.9-6.9,6.4c-0.3,0.2-0.5,0.4-0.5,0.7c-0.3,1.9-0.7,3.7-1,5.5c-0.2,1.2-1,1.8-2.2,1.8s-2.4,0-3.5,0
			c-1.2,0-1.9-0.6-2.2-1.8c-0.2-1-0.4-2-0.6-2.9c-2.9,0-5.8,0-8.7,0c-0.2,0.9-0.4,1.8-0.5,2.7c-0.2,1.3-1,1.9-2.2,1.9
			c-1.1,0-2.3,0-3.4,0c-1.3,0-2-0.6-2.3-1.9c-0.3-1.7-0.7-3.4-1-5.1c-0.1-0.4-0.2-0.6-0.5-0.8c-4.3-2.5-7-6-8-10.9
			c-0.3-1.7-0.4-3.4-0.5-5.1c-0.2-0.2-0.4-0.1-0.5,0.2c-0.9,1.4-2,2.4-3.7,2.8c-0.3,0.1-0.7,0.1-1,0.1c-0.5,0-0.9-0.4-0.9-0.8
			c0-0.5,0.3-0.8,0.9-0.9c1.3-0.1,2.4-0.7,3.2-1.8c-0.2-0.1-0.4-0.1-0.5-0.2c-0.5-0.2-1-0.3-1.5-0.6c-1.4-0.7-1.8-2-1-3.3
			s2.3-1.6,3.5-0.7c1,0.7,1.5,1.7,1.6,2.9c0,0.1,0,0.3,0.2,0.4c0-0.2,0.1-0.3,0.1-0.5c0.9-4.9,3.5-8.6,7.7-11.1
			c0.6-0.3,1-0.3,1.3,0.2c0.3,0.4,0.1,0.9-0.5,1.2c-3.6,2.2-6,5.3-6.8,9.4c-0.6,2.9-0.5,5.8,0.3,8.7c1.1,3.7,3.5,6.5,6.8,8.4
			c0.8,0.5,1.2,1,1.4,1.9c0.3,1.7,0.6,3.3,0.9,5c0.1,0.5,0.3,0.6,0.7,0.6c1.1,0,2.2,0,3.3,0c0.4,0,0.6-0.2,0.7-0.6
			c0.1-0.9,0.3-1.8,0.5-2.7c0.2-1.1,0.6-1.5,1.8-1.4c2.9,0.3,5.7,0.2,8.6-0.2c0.8-0.1,1.4,0.3,1.6,1.2c0.2,1,0.4,2,0.6,3
			c0.1,0.5,0.3,0.6,0.7,0.6c1.1,0,2.2,0,3.3,0c0.5,0,0.7-0.2,0.8-0.7c0.3-1.9,0.7-3.8,1.1-5.8c0.1-0.6,0.4-1,0.9-1.3
			c2.8-1.5,5.1-3.4,6.7-6.2c0.4-0.6,0.9-1,1.6-1.2c1.1-0.3,2.2-0.7,3.3-1c1-0.3,1.3-0.7,1.3-1.8s0-2.3,0-3.4c0-0.8-0.3-1.3-1.1-1.6
			c-0.7-0.2-1.3-0.4-2-0.6c-1-0.3-1.6-0.9-2-1.9c-0.5-1.5-1.2-2.8-2.2-4.1c-0.1-0.1-0.2-0.2-0.3-0.3c0,0-0.1,0-0.1-0.1
			c-0.1,0.2-0.2,0.3-0.2,0.5c-0.8,2-2.3,2.8-4.3,2.8c-3.8,0-6.5-2.7-6.6-6.5c0-1,0.1-2,0.2-3.1c-0.4-0.1-0.8-0.2-1.3-0.3
			c-0.1,0-0.2,0.1-0.3,0.1c-0.7,1.3-1.2,1.9-1.7,2.5c-0.5,0.5-1.1,1-1.7,1.5c0.4,0.1,0.9,0.3,1.3,0.4c0.6,0.2,0.8,0.6,0.7,1.1
			c-0.2,0.4-0.7,0.6-1.3,0.4C48.4,41.3,46,41,43.6,41c-2.1,0-4.2,0.4-6.3,1c-0.2,0.1-0.5,0.2-0.7,0.1c-0.3-0.1-0.5-0.4-0.6-0.7
			c-0.1-0.4,0.1-0.7,0.5-0.9c0.5-0.2,0.9-0.3,1.5-0.5c-0.2-0.1-0.3-0.2-0.4-0.3C33.8,37,32,32.4,33,28c1-4.5,4.7-7.9,9.3-8.7
			C47,18.5,51.8,21,54,25.2c0.3,0.6,0.2,1-0.3,1.3c-0.4,0.2-0.9,0.1-1.2-0.5l-0.1-0.1c-2-3.4-4.9-5.1-8.8-5
			c-4.4,0.1-8.3,3.5-9.1,7.9s1.7,9,5.8,10.6c0.3,0.1,0.6,0.1,0.9,0.1c1.9-0.2,3.8-0.2,5.6,0c0.3,0,0.7,0,1-0.2
			c3.5-1.6,5.4-4.3,5.8-8.1c0-0.3,0.1-0.6,0.3-0.8c0.2-0.2,0.6-0.3,0.9-0.2c0.2,0.1,0.5,0.5,0.5,0.7c-0.2,1.2-0.5,2.4-0.7,3.6
			c0,0.2-0.1,0.4-0.2,0.6c0.8,0.1,1.5,0.5,2.4,0.1c2.1-1.1,4.3-1.9,6.6-2.4c0.2,0,0.3-0.1,0.5-0.1c1.9-0.2,2.7,0.4,3,2.3
			c0.3,2,0.1,3.9-0.3,5.9c0,0.2,0,0.6,0.2,0.7c1.5,1.6,2.6,3.5,3.3,5.6c0.2,0.5,0.4,0.8,0.9,0.9c0.4,0.1,0.8,0.3,1.3,0.4
			c1.5,0.3,2.5,1.1,3,2.6C75.2,52.9,75.2,54.6,75.2,56.3z M65.2,36.8c0-0.3-0.1-1-0.2-1.7c-0.1-0.8-0.3-0.9-1.1-0.8
			c-2.4,0.5-4.7,1.5-6.9,2.5c-0.3,0.1-0.5,0.5-0.5,0.8c-0.1,0.9-0.2,1.7-0.2,2.6c0.1,2.8,2.2,4.8,5.1,4.7c1.3,0,2.2-0.6,2.7-1.9
			C64.9,41.2,65.2,39.2,65.2,36.8z M23,49.3c-0.1-0.9-0.4-1.6-1.1-1.9c-0.4-0.2-0.8,0-1,0.5c-0.2,0.4,0,0.6,0.3,0.8
			C21.7,48.8,22.3,49,23,49.3z"/>
		<path class="st1" d="M58.1,75.1h-3.5c-1.3,0-2.1-0.7-2.4-2c-0.2-0.9-0.4-1.9-0.6-2.7h-8.3c-0.2,0.8-0.4,1.7-0.5,2.5
			c-0.2,1.4-1.1,2.1-2.4,2.1H37c-1.4,0-2.2-0.7-2.5-2.1c-0.2-0.9-0.3-1.7-0.5-2.6c-0.2-0.9-0.4-1.7-0.5-2.6
			c-0.1-0.4-0.2-0.5-0.4-0.6c-4.5-2.6-7.1-6.2-8.1-11.1c-0.3-1.7-0.4-3.3-0.5-4.9c0,0,0,0,0,0.1c-1.1,1.7-2.3,2.6-3.9,3
			c-0.3,0.1-0.7,0.1-1.1,0.1c-0.6,0-1.2-0.5-1.2-1.1c0-0.4,0.2-1,1.1-1.1c1.2-0.1,2.1-0.6,2.8-1.4c-0.1,0-0.2-0.1-0.2-0.1
			c-0.1-0.1-0.3-0.1-0.4-0.2c-0.3-0.1-0.7-0.2-1-0.4c-0.7-0.4-1.3-0.9-1.4-1.6c-0.2-0.6-0.1-1.4,0.4-2c0.4-0.7,1.1-1.2,1.8-1.3
			c0.7-0.1,1.4,0.1,2.1,0.5c0.8,0.6,1.4,1.4,1.6,2.5c1-4.7,3.6-8.3,7.7-10.8c0.5-0.2,1.2-0.5,1.6,0.3c0.2,0.2,0.2,0.5,0.2,0.7
			c-0.1,0.3-0.3,0.6-0.8,0.8c-3.7,2.2-5.9,5.3-6.7,9.2c-0.6,2.9-0.5,5.7,0.3,8.6c1,3.5,3.3,6.3,6.7,8.3c0.9,0.6,1.3,1.1,1.5,2.1
			c0.2,0.9,0.3,1.7,0.5,2.5c0.1,0.8,0.3,1.6,0.4,2.5c0.1,0.4,0.2,0.4,0.5,0.4h3.3c0.2,0,0.4-0.1,0.5-0.4c0.1-0.9,0.3-1.8,0.5-2.7
			c0.2-1.3,0.8-1.7,2.1-1.6c2.7,0.3,5.5,0.2,8.5-0.2c1-0.1,1.7,0.4,1.9,1.4l0.6,3c0.1,0.4,0.2,0.4,0.5,0.4H58c0.4,0,0.5-0.1,0.6-0.5
			c0.2-1.6,0.6-3.1,0.9-4.8l0.2-1c0.1-0.6,0.4-1.1,1-1.5c3.1-1.6,5.2-3.6,6.6-6.1c0.5-0.7,1-1.1,1.7-1.3c0.5-0.2,1.1-0.3,1.6-0.5
			c0.6-0.2,1.1-0.4,1.7-0.5c0.9-0.3,1.1-0.6,1.1-1.6v-3.4c0-0.7-0.3-1.1-0.9-1.4c-0.3-0.1-0.7-0.2-1-0.3c-0.3-0.1-0.6-0.2-1-0.3
			c-1.1-0.3-1.7-0.9-2.2-2c-0.5-1.5-1.2-2.8-2.2-4l-0.1-0.1c0,0,0,0.1,0,0.1l0,0.1c-0.8,2-2.3,3-4.5,3c-3.9,0-6.7-2.8-6.9-6.7
			c0-0.9,0.1-1.9,0.2-2.8l0-0.1c-0.3-0.1-0.6-0.2-1-0.2c0,0-0.1,0-0.1,0.1c-0.7,1.3-1.2,1.9-1.7,2.4c-0.4,0.4-0.9,0.8-1.4,1.2
			c0.1,0,0.1,0,0.2,0.1c0.2,0.1,0.4,0.1,0.6,0.2c0.7,0.2,1,0.7,0.9,1.4l0,0.1c-0.3,0.5-0.9,0.8-1.6,0.5c-2.2-0.7-4.5-1.1-7.1-1.1
			c-1.9,0-3.9,0.3-6.2,1c-0.2,0.1-0.6,0.2-0.9,0.1c-0.3-0.1-0.6-0.4-0.7-0.8c-0.1-0.5,0.1-0.9,0.6-1.2c0.3-0.1,0.6-0.2,1-0.3
			c0,0,0.1,0,0.1,0c0,0,0,0,0,0c-3.8-2.7-5.7-7.4-4.7-11.9c1-4.6,4.7-8.1,9.5-8.9c4.8-0.8,9.7,1.7,12,6c0.4,0.7,0.2,1.3-0.4,1.6
			c-0.3,0.1-0.6,0.2-0.8,0.1c-0.3-0.1-0.5-0.3-0.7-0.6l-0.1-0.1c-2-3.4-4.8-5-8.6-4.9c-4.3,0.1-8.1,3.4-8.9,7.7
			c-0.8,4.3,1.6,8.8,5.6,10.3c0.2,0.1,0.5,0.1,0.8,0.1c1.9-0.2,3.8-0.2,5.6,0c0.3,0,0.6,0,0.8-0.2c3.4-1.6,5.3-4.2,5.7-7.9
			c0-0.4,0.1-0.7,0.4-1c0.3-0.3,0.8-0.4,1.2-0.3c0.3,0.1,0.7,0.6,0.7,0.9c-0.1,0.6-0.2,1.2-0.4,1.9c-0.1,0.6-0.2,1.2-0.3,1.8
			c0,0.1,0,0.2-0.1,0.4c0.1,0,0.2,0,0.3,0.1c0.5,0.1,1,0.2,1.6,0c2.1-1.1,4.3-1.9,6.6-2.4c0.1,0,0.2,0,0.2,0c0.1,0,0.2-0.1,0.3-0.1
			c2-0.2,2.9,0.5,3.2,2.5c0.3,1.8,0.2,3.6-0.3,6c0,0.3,0,0.4,0.1,0.4l0.1,0c1.5,1.6,2.6,3.5,3.4,5.7c0.2,0.5,0.4,0.7,0.7,0.7
			c0.2,0,0.4,0.1,0.6,0.2c0.2,0.1,0.5,0.2,0.7,0.2c1.6,0.3,2.7,1.2,3.2,2.8l0,0l0,0c-0.1,1.8-0.1,3.5-0.1,5.2l0,0.1
			c-0.5,1.5-1.6,2.4-3.2,2.8c-0.6,0.1-1.2,0.4-1.8,0.6c-0.3,0.1-0.6,0.2-0.9,0.3c-0.3,0.1-0.5,0.3-0.7,0.5c-1.6,2.7-4,4.9-7,6.5
			c-0.3,0.2-0.4,0.3-0.4,0.5c-0.2,1.1-0.4,2.1-0.5,3.1c-0.2,0.8-0.3,1.7-0.5,2.5C60.4,74.4,59.5,75.1,58.1,75.1z M43.1,69.9H52
			l0,0.2c0.2,0.9,0.4,1.9,0.6,2.9c0.3,1.1,0.9,1.6,2,1.6h3.5c1.1,0,1.8-0.5,2-1.6c0.1-0.8,0.3-1.7,0.5-2.5c0.2-1,0.4-2,0.5-3
			c0-0.4,0.3-0.7,0.6-0.9c2.9-1.6,5.2-3.7,6.8-6.3c0.2-0.3,0.5-0.6,0.9-0.7c0.3-0.1,0.6-0.2,0.9-0.3c0.6-0.2,1.2-0.5,1.8-0.6
			c1.5-0.3,2.3-1.1,2.8-2.4c0-1.6,0-3.4,0.1-5.1c-0.5-1.3-1.4-2.1-2.8-2.4c-0.3-0.1-0.6-0.2-0.8-0.2c-0.2-0.1-0.3-0.1-0.5-0.2
			c-0.7-0.1-0.9-0.6-1.1-1c-0.7-2.1-1.8-4-3.2-5.5c-0.3-0.2-0.3-0.6-0.3-0.9c0.5-2.4,0.6-4.1,0.3-5.9c-0.3-1.8-0.9-2.3-2.7-2.1
			c-0.1,0-0.1,0-0.2,0c-0.1,0-0.2,0.1-0.3,0.1c-2.2,0.5-4.4,1.3-6.5,2.4c-0.7,0.3-1.3,0.2-1.9,0c-0.2,0-0.4-0.1-0.6-0.1l-0.4,0
			l0.2-0.3c0.1-0.2,0.2-0.3,0.2-0.5c0.1-0.6,0.2-1.2,0.4-1.9c0.1-0.6,0.2-1.2,0.3-1.8c0-0.1-0.2-0.4-0.4-0.4c-0.2-0.1-0.5,0-0.6,0.2
			c-0.1,0.1-0.2,0.4-0.2,0.6c-0.4,3.9-2.4,6.7-5.9,8.3c-0.3,0.2-0.8,0.2-1.1,0.2c-1.8-0.2-3.7-0.2-5.6,0c-0.3,0-0.7,0-1-0.1
			c-4.2-1.7-6.8-6.3-6-10.9c0.8-4.5,4.8-8,9.3-8.1c3.9-0.1,6.9,1.6,9,5.1l0.1,0.1c0.1,0.2,0.3,0.4,0.4,0.4c0.2,0.1,0.3,0,0.4,0
			c0.3-0.2,0.5-0.4,0.2-1c-2.2-4.2-6.9-6.5-11.4-5.8c-4.6,0.8-8.1,4.1-9.1,8.5c-1,4.3,0.8,8.8,4.5,11.4c0.1,0.1,0.2,0.2,0.4,0.3
			l0.5,0.3l-0.6,0.2c-0.2,0.1-0.4,0.1-0.6,0.2c-0.3,0.1-0.6,0.2-0.9,0.3c-0.4,0.2-0.4,0.4-0.4,0.6c0.1,0.3,0.3,0.5,0.4,0.5
			c0.1,0,0.3,0,0.5-0.1c2.4-0.7,4.5-1,6.4-1c2.7,0,5,0.4,7.3,1.1c0.4,0.1,0.8,0,1-0.2c0.1-0.4-0.1-0.6-0.5-0.8
			c-0.2,0-0.4-0.1-0.6-0.2c-0.2-0.1-0.4-0.1-0.6-0.2l-0.5-0.1L50,40c0.6-0.5,1.2-1,1.7-1.5c0.5-0.6,1-1.2,1.7-2.4l0.1-0.1h0.1
			c0.1-0.1,0.2-0.1,0.3-0.1c0.5,0.1,0.9,0.2,1.3,0.3l0.2,0.1l0,0.5c-0.1,1-0.2,1.9-0.2,2.8c0.1,3.7,2.7,6.3,6.4,6.3
			c2,0,3.3-0.9,4.1-2.6c0-0.2,0.1-0.3,0.2-0.4c0,0,0-0.1,0.1-0.1l0.5-0.9l0,1l0.3,0.3c1,1.4,1.8,2.7,2.3,4.2
			c0.4,0.9,0.9,1.5,1.8,1.7c0.3,0.1,0.7,0.2,1,0.3c0.3,0.1,0.7,0.2,1,0.3c0.9,0.3,1.3,0.9,1.3,1.8v3.4c0,1.2-0.4,1.7-1.5,2
			c-0.6,0.2-1.1,0.3-1.7,0.5c-0.6,0.2-1.1,0.4-1.7,0.5c-0.6,0.2-1.1,0.5-1.5,1.1c-1.5,2.6-3.6,4.6-6.8,6.3c-0.4,0.3-0.7,0.6-0.8,1.1
			l-0.2,1c-0.3,1.6-0.6,3.2-0.9,4.8C59,72.7,58.7,73,58,73h-3.3c-0.5,0-0.8-0.1-0.9-0.8l-0.6-3c-0.2-0.7-0.6-1.1-1.3-1
			c-3.1,0.4-5.9,0.5-8.7,0.2c-1-0.1-1.3,0.2-1.5,1.2c-0.2,0.9-0.4,1.8-0.5,2.7c-0.1,0.6-0.4,0.8-0.9,0.8h-3.3
			c-0.5,0-0.8-0.1-0.9-0.8c-0.2-0.9-0.3-1.7-0.4-2.5c-0.2-0.8-0.3-1.7-0.5-2.5c-0.2-0.8-0.5-1.2-1.3-1.7c-3.5-2-5.8-4.9-6.9-8.5
			c-0.8-2.9-0.9-5.9-0.3-8.8c0.8-4,3.1-7.2,6.9-9.6c0.3-0.1,0.5-0.3,0.5-0.5c0-0.1,0-0.2-0.1-0.3c-0.2-0.3-0.4-0.4-1-0.1
			c-4.1,2.5-6.7,6.1-7.6,10.9c0,0.1,0,0.2-0.1,0.3c0,0.1,0,0.1,0,0.2v0.4l-0.4-0.2c-0.3-0.2-0.3-0.5-0.3-0.6
			c-0.1-1.2-0.6-2.1-1.5-2.7c-0.5-0.4-1.1-0.5-1.7-0.4c-0.6,0.1-1.1,0.5-1.5,1.1c-0.3,0.6-0.5,1.1-0.3,1.6c0.2,0.5,0.6,1,1.2,1.3
			c0.3,0.2,0.6,0.3,1,0.4c0.2,0.1,0.3,0.1,0.5,0.2l0.1,0.1c0,0,0.1,0,0.1,0c0.1,0,0.2,0.1,0.3,0.1l0.3,0.1L23,50.7
			c-0.8,1.1-2,1.8-3.4,1.9c-0.6,0.1-0.7,0.4-0.7,0.7c0,0.3,0.3,0.6,0.7,0.6c0.3,0,0.7,0,0.9-0.1c1.5-0.4,2.6-1.2,3.6-2.7
			c0.1-0.2,0.2-0.4,0.4-0.4c0.1,0,0.3,0,0.5,0.2l0.1,0.1l0,0.1c0.1,1.7,0.2,3.4,0.5,5.1c1,4.7,3.5,8.2,7.9,10.7
			c0.4,0.3,0.5,0.5,0.6,1c0.2,0.9,0.3,1.7,0.5,2.6c0.2,0.9,0.4,1.7,0.5,2.6c0.3,1.2,0.9,1.7,2.1,1.7h3.4c1.1,0,1.8-0.6,2-1.7
			c0.1-0.9,0.3-1.8,0.5-2.7l0-0.2L43.1,69.9z M23.3,49.7L23,49.6c-0.7-0.3-1.3-0.5-1.8-0.6l-0.1,0c-0.2-0.1-0.7-0.5-0.4-1.1
			c0.1-0.3,0.3-0.6,0.6-0.7c0.2-0.1,0.5-0.1,0.7,0c0.7,0.3,1.1,1,1.2,2.1L23.3,49.7z M21.3,48.5c0.4,0.1,0.9,0.2,1.4,0.4
			c-0.1-0.7-0.4-1.1-0.9-1.3c-0.1-0.1-0.2-0.1-0.3,0c-0.1,0.1-0.3,0.2-0.3,0.4C21.1,48.2,21.1,48.3,21.3,48.5z M61.2,45.2
			c-2.9,0-5-2-5.1-4.9c0-0.8,0.1-1.6,0.2-2.4l0-0.2c0-0.4,0.3-0.9,0.7-1c2.3-1,4.5-2,6.9-2.5c0.9-0.1,1.3,0,1.4,1
			c0.1,0.8,0.2,1.4,0.2,1.7c0,2.6-0.4,4.6-1.1,6.3c-0.5,1.4-1.5,2-2.9,2C61.4,45.2,61.3,45.2,61.2,45.2z M64.4,34.5
			c-0.1,0-0.2,0-0.4,0c-2.3,0.5-4.6,1.5-6.8,2.5c-0.2,0.1-0.4,0.4-0.4,0.6l0,0.3c-0.1,0.8-0.2,1.5-0.2,2.3c0.1,2.7,2.2,4.6,4.8,4.4
			c1.2,0,2-0.6,2.5-1.7c0.7-1.7,1.1-3.6,1.1-6.1c0-0.3-0.1-1-0.2-1.6C64.7,34.7,64.7,34.5,64.4,34.5z"/>
	</g>
	<g>
		<path class="st1" d="M44.8,26.6c0,1,0,1.9,0,2.8c0,0.1,0.1,0.2,0.2,0.3c0.1,0.1,0.2,0.1,0.3,0.1c1.6,0.7,2.2,1.7,2.1,3.1
			c-0.1,1.5-0.9,2.3-2.5,2.8c-0.2,0.2-0.4,0.5-0.6,0.7c-0.2-0.2-0.4-0.4-0.6-0.6l0.1-0.1c-0.4-0.1-0.8-0.1-1.1-0.2
			c-0.5-0.2-1-0.5-1.5-0.8c-0.2-0.1-0.3-0.4-0.3-0.7s0.2-0.6,0.4-0.8c0.1-0.1,0.5,0,0.7,0.2c0.5,0.4,1.1,0.8,1.9,0.8
			c0-1.1,0-2.1,0-3.2c0-0.1-0.2-0.2-0.3-0.3c-0.3-0.2-0.7-0.3-1-0.5c-1-0.5-1.5-1.4-1.4-2.5c0.1-1.2,0.7-1.9,1.8-2.3
			c0.3-0.1,0.6-0.1,0.8-0.3c0.2-0.2,0.4-0.4,0.6-0.6c0.2,0.2,0.4,0.4,0.6,0.7c0.4,0.1,1,0.2,1.6,0.4c0.4,0.1,0.6,0.4,0.5,0.9
			s-0.5,0.6-0.9,0.5C45.8,26.9,45.3,26.8,44.8,26.6z M44.7,34.2c0.7,0,1.1-0.4,1.2-1.1c0.1-0.8-0.3-1.5-1.2-1.8
			C44.7,32.3,44.7,33.3,44.7,34.2z M44,26.8c-0.9,0.1-1.4,0.5-1.4,1.2s0.6,1.2,1.4,1.3C44,28.4,44,27.6,44,26.8z"/>
		<path class="st1" d="M44.3,36.8l-0.9-0.9c-0.1,0-0.1,0-0.2,0c-0.2,0-0.4-0.1-0.6-0.1c-0.5-0.2-1-0.5-1.5-0.8
			c-0.3-0.2-0.4-0.6-0.4-0.9c0-0.5,0.3-0.8,0.5-1c0.2-0.2,0.8,0,1.1,0.2c0.4,0.3,0.9,0.6,1.5,0.7v-2.9c0,0-0.1,0-0.1-0.1
			c-0.1,0-0.1-0.1-0.1-0.1c-0.1-0.1-0.3-0.1-0.4-0.2c-0.2-0.1-0.4-0.2-0.5-0.3c-1.1-0.5-1.6-1.5-1.5-2.7c0.1-1.3,0.7-2.1,2-2.5
			c0.1,0,0.2-0.1,0.3-0.1c0.2,0,0.3-0.1,0.4-0.2l0.8-0.8l0.2,0.2c0.2,0.2,0.4,0.4,0.6,0.7c0.1,0,0.2,0,0.3,0.1
			c0.3,0.1,0.8,0.2,1.2,0.3c0.5,0.1,0.8,0.6,0.7,1.2c-0.1,0.3-0.2,0.5-0.4,0.6c-0.2,0.1-0.5,0.2-0.8,0.1l-0.2-0.1
			c-0.3-0.1-0.5-0.1-0.8-0.2v2.4c0,0,0.1,0.1,0.1,0.1c0,0,0,0,0.1,0l0.1,0c1.6,0.7,2.4,1.8,2.2,3.3c-0.1,1.5-0.9,2.5-2.6,3
			c-0.1,0.1-0.2,0.2-0.2,0.3c-0.1,0.1-0.2,0.3-0.3,0.4L44.3,36.8z M44.1,35.8l0.2,0.2c0,0,0.1-0.1,0.1-0.1c0.1-0.1,0.2-0.3,0.3-0.4
			l0.1-0.1c1.6-0.5,2.2-1.2,2.3-2.6c0.1-1.3-0.5-2.2-1.9-2.8c-0.1,0-0.3,0-0.4-0.2c-0.1-0.1-0.3-0.3-0.3-0.5v-3.2l0.3,0.1
			c0.4,0.2,0.8,0.2,1.1,0.3l0.2,0.1c0.2,0,0.3,0,0.4,0c0.1-0.1,0.1-0.1,0.2-0.3c0.1-0.4-0.1-0.6-0.3-0.6c-0.4-0.1-0.8-0.2-1.2-0.3
			c-0.2,0-0.3-0.1-0.4-0.1l-0.1,0l-0.1-0.1c-0.1-0.2-0.3-0.3-0.4-0.5L44,25.3c-0.2,0.2-0.4,0.2-0.6,0.3c-0.1,0-0.2,0-0.3,0.1
			c-1,0.4-1.5,1-1.6,2.1c-0.1,1,0.4,1.8,1.3,2.3c0.2,0.1,0.3,0.2,0.5,0.2c0.2,0.1,0.4,0.2,0.5,0.3c0.1,0.1,0.1,0.1,0.1,0.1
			c0.1,0.1,0.3,0.2,0.3,0.4v3.5h-0.3c-0.9,0-1.5-0.4-2.1-0.9c-0.1-0.1-0.3-0.2-0.4-0.2c-0.1,0.2-0.3,0.4-0.3,0.6
			c0,0.2,0.1,0.4,0.2,0.5c0.5,0.3,1,0.6,1.5,0.8c0.1,0,0.3,0.1,0.5,0.1c0.2,0,0.4,0.1,0.6,0.1l0.4,0.1L44.1,35.8z M44.7,34.5h-0.3
			V31l0.3,0.1c1,0.3,1.5,1.1,1.4,2.1C46.1,34,45.6,34.5,44.7,34.5z M45,31.7V34c0.4-0.1,0.6-0.4,0.7-0.9C45.8,32.5,45.5,32,45,31.7z
			 M44.3,29.6l-0.3,0c-1-0.1-1.6-0.7-1.6-1.5c0-0.5,0.2-1.3,1.6-1.4l0.3,0V29.6z M43.8,27.1c-0.9,0.2-0.9,0.7-0.9,0.9
			c0,0.5,0.4,0.8,0.9,1V27.1z"/>
	</g>
	<g>
		<path class="st1" d="M63.4,52.2c-1.4,0-2.6-1.1-2.7-2.5c0-0.5,0.3-0.9,0.7-1c0.5-0.1,0.8,0.2,0.9,0.8c0.1,0.7,0.5,1.1,1.1,1.1
			s0.9-0.4,1-1.1c0.1-0.6,0.5-0.8,1-0.8c0.5,0.1,0.7,0.4,0.7,1C66,51.1,64.8,52.2,63.4,52.2z"/>
		<path class="st1" d="M63.4,52.5c-1.5,0-2.8-1.2-2.9-2.7c0-0.6,0.4-1.1,0.9-1.3c0.3-0.1,0.5,0,0.7,0.1c0.2,0.2,0.4,0.5,0.5,0.9
			c0.1,0.4,0.3,0.9,0.9,0.9c0.3,0,0.6-0.1,0.8-0.9c0.1-0.7,0.6-1,1.2-1c0.9,0.2,1,0.8,1,1.3C66.3,51.3,65,52.5,63.4,52.5z M61.6,49
			c0,0-0.1,0-0.1,0C61.2,49,61,49.4,61,49.7c0.1,1.3,1.2,2.3,2.4,2.3c1.3,0,2.4-1,2.5-2.3c0-0.5-0.2-0.7-0.5-0.7
			c-0.4,0-0.6,0.2-0.7,0.6c-0.2,1.1-0.8,1.3-1.2,1.3c-0.7,0-1.2-0.5-1.3-1.3c0-0.3-0.1-0.5-0.3-0.5C61.8,49,61.7,49,61.6,49z"/>
	</g>
</g>
</svg>
