<?xml version="1.0" encoding="utf-8"?>
<!-- Generator: Adobe Illustrator 22.0.0, SVG Export Plug-In . SVG Version: 6.00 Build 0)  -->
<svg version="1.1" id="Layer_1" xmlns="http://www.w3.org/2000/svg" xmlns:xlink="http://www.w3.org/1999/xlink" x="0px" y="0px"
	 viewBox="0 0 435 561.3" style="enable-background:new 0 0 435 561.3;" xml:space="preserve">
<style type="text/css">
	.st0{fill:#FFFFFF;}
	.st1{fill:url(#SVGID_3_);}
	.st2{fill:#F9F9F9;}
	.st3{opacity:8.000000e-02;}
	.st4{fill:#F48120;}
	.st5{fill:#EF4E23;}
	.st6{fill:url(#SVGID_10_);}
	.st7{fill:url(#SVGID_11_);}
	.st8{fill:#005499;}
	.st9{fill:#C9C9C9;}
	.st10{fill:none;stroke:#000000;stroke-miterlimit:10;}
	.st11{fill:#E3F8FC;}
	.st12{fill:#F9F3E0;}
	.st13{fill:#E1F0E5;}
	.st14{fill:#ECF4FF;}
	.st15{fill:#FFE5DC;}
	.st16{fill:#5FC7E0;}
	.st17{fill:#FACA15;}
	.st18{fill:#38AA56;}
	.st19{fill:#428DFC;}
	.st20{fill:#F36E36;}
	.st21{fill:#2F2E41;}
	.st22{fill:#9F616A;}
	.st23{fill:#F2F2F2;}
	.st24{fill:#3F3D56;}
	.st25{fill:#CBCBCB;}
	.st26{fill:#74ECF3;}
	.st27{fill:#A0C6F4;}
	.st28{fill:#2A1E17;}
	.st29{fill:#F9865F;}
	.st30{fill:#2A1E33;}
	.st31{fill:#FF8A66;}
	.st32{fill:#FFEAA0;}
	.st33{fill:#FF6D66;}
	.st34{fill:#FAD8B0;}
	.st35{fill:#C6CBCB;}
	.st36{fill:#FFF7DC;}
	.st37{fill:#FFE1C0;}
	.st38{fill:#91BA83;}
	.st39{fill:#96BD89;}
	.st40{fill:#FFFFFF;filter:url(#Adobe_OpacityMaskFilter);}
	.st41{mask:url(#mask0_2_);}
	.st42{fill:#FFFFFF;filter:url(#Adobe_OpacityMaskFilter_1_);}
	.st43{mask:url(#mask0_3_);}
	.st44{fill:#FF3E4A;}
	.st45{fill:#FFFFFF;filter:url(#Adobe_OpacityMaskFilter_2_);}
	.st46{mask:url(#mask0_1_);}
	.st47{fill:#DE1731;}
	.st48{fill:#FFB600;}
	.st49{fill:#FFFFFF;filter:url(#Adobe_OpacityMaskFilter_3_);}
	.st50{mask:url(#mask1_2_);}
	.st51{fill:#E28200;}
	.st52{fill:#252525;}
	.st53{fill:#E0E0E0;}
	.st54{fill:#FF8BB9;}
	.st55{fill:#24244F;}
	.st56{fill:#FFFFFF;filter:url(#Adobe_OpacityMaskFilter_4_);}
	.st57{mask:url(#mask2_2_);}
	.st58{fill:#AED8F9;}
	.st59{fill:#FFFFFF;filter:url(#Adobe_OpacityMaskFilter_5_);}
	.st60{mask:url(#mask3_2_);}
	.st61{fill:none;stroke:#FFFFFF;stroke-width:2;}
	.st62{fill:#FFFFFF;filter:url(#Adobe_OpacityMaskFilter_6_);}
	.st63{mask:url(#mask0_4_);}
	.st64{fill:#FFFFFF;filter:url(#Adobe_OpacityMaskFilter_7_);}
	.st65{mask:url(#mask1_1_);}
	.st66{fill:#FFFFFF;filter:url(#Adobe_OpacityMaskFilter_8_);}
	.st67{mask:url(#mask2_1_);}
	.st68{fill:#FFFFFF;filter:url(#Adobe_OpacityMaskFilter_9_);}
	.st69{mask:url(#mask3_1_);}
	.st70{fill:none;stroke:#EF4E23;stroke-width:4.097;stroke-linecap:round;stroke-miterlimit:10;}
	.st71{fill:none;stroke:#595959;stroke-miterlimit:10;}
	.st72{fill:url(#SVGID_14_);}
	.st73{fill:url(#SVGID_15_);}
	.st74{fill:url(#SVGID_16_);}
	.st75{fill:url(#SVGID_19_);}
	.st76{fill:url(#SVGID_22_);}
	.st77{fill:url(#SVGID_25_);}
	.st78{fill:url(#SVGID_28_);}
</style>
<g>
	<path class="st21" d="M2.7,561l-1.2,0c0.5-13.6,1.9-27.1,4.3-40.5c5.3-28.7,14.1-47.5,26.1-56l0.7,1C4.5,485.3,2.7,560.3,2.7,561z"
		/>
	<path class="st21" d="M18,560.8l-1.2,0c0-1.4,0.8-33.3,13.4-42.1l0.7,1C18.8,528.1,18,560.4,18,560.8z"/>
	<circle class="st5" cx="39.6" cy="459.5" r="6.1"/>
	<circle class="st5" cx="36.6" cy="512.1" r="6.1"/>
	<path class="st21" d="M15.1,469.3c1.1,7.3-1.8,13.9-1.8,13.9s-4.9-5.3-6-12.7c-1.1-7.3,1.8-13.9,1.8-13.9S14,462,15.1,469.3z"/>
	<path class="st21" d="M35.1,487.1c-7,2.4-14,0.6-14,0.6s4.4-5.7,11.4-8.1s14-0.6,14-0.6S42.2,484.7,35.1,487.1z"/>
	<path class="st21" d="M35.4,533.7c-3.2,1-6.6,1.1-9.8,0.4c4.2-5.4,11.2-7.8,17.8-6.1C41.2,530.6,38.5,532.5,35.4,533.7z"/>
	<path class="st22" d="M137.1,188.9l76.9-40c0,0,25.8-28.4,42-41.3s21.2-3.4,21.2-3.4l6.8,11.4l-16.5,22.9l-44.5,37.7l-79.5,31.1
		c-3.6,5.9-11.4,7.8-17.3,4.2c-5.9-3.6-7.8-11.4-4.2-17.3C125.2,189,131.5,186.8,137.1,188.9L137.1,188.9z"/>
	<path class="st22" d="M337.1,154.3l4.6-27.8l12.9-3.2c0,0,10.2-3.1,12.6,17.4c2.4,20.5,0.5,58.9,0.5,58.9l26.1,82.6
		c6.3,2.9,9.1,10.5,6.1,16.8c-2.9,6.3-10.5,9.1-16.8,6.1c-5.5-2.5-8.4-8.6-6.9-14.5l-34.2-78.2L337.1,154.3z"/>
	<polygon class="st22" points="230.8,545 214,545 206,480.2 230.8,480.2 	"/>
	<path class="st21" d="M235.1,539.6l-33.1,0h0c-11.7,0-21.1,9.4-21.1,21.1v0.7l54.2,0L235.1,539.6z"/>
	<polygon class="st22" points="414.2,545 397.4,545 389.4,480.2 414.2,480.2 	"/>
	<path class="st21" d="M418.5,539.6l-33.1,0h0c-11.7,0-21.1,9.4-21.1,21.1v0.7l54.2,0L418.5,539.6z"/>
	<path class="st21" d="M331.2,98.7l27.9,23.8l-22.9,72.4l-5.2,16.2c0,0,31.5,29.1,51.1,110.3c19.5,81.2,51.4,189.2,51.4,189.2
		l-67.4,19.3l-54.8-183.7l-64.5,144.2l-7.4,42.6L182,516l13.5-106.9L263.2,224l-7-49.1c0,0-10.6-24.5,7.8-50.4l5.8-24.4l20.6-5.1
		L331.2,98.7z"/>
	<path class="st21" d="M284.9,85.7h75.4c3.2,0,5.8-2.6,5.9-5.9V47.4c0-24.1-19.5-43.6-43.6-43.6c-24.1,0-43.6,19.5-43.6,43.6v32.5
		C279,83.1,281.6,85.7,284.9,85.7z"/>
	<circle class="st22" cx="313.6" cy="53" r="31.9"/>
	<path class="st21" d="M268.7,50.6h46.1l0.5-6.6l2.4,6.6h7.1l0.9-13.1l4.7,13.1h13.7V50c0-19-15.4-34.4-34.5-34.5h-6.5
		c-19,0-34.4,15.4-34.5,34.5V50.6z"/>
	<path class="st21" d="M315.2,91.8c0.3,0,0.7,0,1-0.1l33.8-6V29.9h-37.2l0.9,1.1c12.8,14.9,3.2,39.1-3.7,52.2c-1,2-0.9,4.3,0.5,6.1
		C311.6,90.9,313.3,91.8,315.2,91.8z"/>
	<path class="st0" d="M36,384.4L331.9,489c15.2,5.4,31.9-2.6,37.3-17.8L420,327.4c5.4-15.2-2.6-31.9-17.8-37.3L106.3,185.4
		C91.1,180,74.4,188,69,203.2L18.1,347C12.8,362.3,20.7,379,36,384.4z"/>
	<path class="st23" d="M18.1,347l-0.3,0.8c-5.1,14.6,2.5,30.5,17,35.7l297.4,105.1c14.5,5.1,30.5-2.5,35.7-17l0.3-0.8L18.1,347z"/>
	<path class="st5" d="M350.3,323.4c19.6,12.9,44.8,3.2,53.5-11l-1.4-0.8C385.8,301.3,361,307.1,350.3,323.4z"/>
	<path class="st24" d="M104.5,360c4.8,1.7,9.1,1.6,12.8-0.2c8.4-4.2,12.4-16.6,15.5-26.6c0.9-2.9,1.8-5.6,2.7-7.9l0,0
		c3.2-9.2-1.6-19.4-10.8-22.7L85,288.6c-4.8-1.7-9.1-1.6-12.8,0.2c-8.4,4.2-12.4,16.6-15.6,26.5c-0.9,2.9-1.8,5.7-2.7,7.9
		c-3.2,9.3,1.6,19.4,10.8,22.7L104.5,360z M134,324.7c-0.9,2.3-1.8,5.1-2.7,8c-3.1,9.7-6.9,21.7-14.6,25.5
		c-3.3,1.7-7.1,1.7-11.5,0.1l-39.8-14.1c-8.3-3-12.6-12.1-9.7-20.4c0.9-2.3,1.8-5,2.7-8c3.1-9.6,6.9-21.7,14.7-25.5
		c3.3-1.6,7.1-1.7,11.5-0.1l39.8,14.1C132.5,307.3,136.9,316.4,134,324.7z"/>
	<path class="st24" d="M358.6,328.1c7,2.4,14.5,2.8,21.7,1.2c10.5-2.3,20.1-8.6,25-16.4l0.5-0.8l-2.2-1.2c-17-10.6-42.4-4.8-53.3,12
		l-0.5,0.7l0.7,0.5C353,325.7,355.7,327.1,358.6,328.1z M403.3,312.7c-4.8,7.1-13.6,12.7-23.3,14.9c-9.5,2.2-19.4,0.6-27.7-4.5
		c10.7-15.5,34.5-20.7,50.4-10.7L403.3,312.7z"/>
	<path class="st24" d="M348.2,431.3c5.1,2,10.8,1,15-2.5c4.8-4.2,7.1-10.7,6-17c-1-5.5-5-9.9-10.4-11.4l-53-18.8
		c-5.1-2.1-11-1.2-15.3,2.4c-4.8,4.2-7.1,10.7-6,17c1,5.5,4.7,9.5,10.4,11.4l53,18.8C348,431.2,348.1,431.2,348.2,431.3z
		 M358.5,402.1c4.6,1.4,8.1,5.3,9,10c1,5.7-1.1,11.5-5.4,15.3c-3.7,3.2-9,4-13.5,2.1l-53.1-18.8c-4.7-1.4-8.3-5.3-9.2-10.1
		c-1-5.7,1.1-11.5,5.4-15.3c3.8-3.2,9-4,13.5-2.1l53.1,18.8C358.3,402,358.4,402,358.5,402.1L358.5,402.1z"/>
	<path class="st5" d="M104.2,317.7l16.7,5.9c2.3,0.8,4.8-0.4,5.7-2.7c0.8-2.3-0.4-4.8-2.7-5.7l-16.7-5.9c-2.3-0.8-4.8,0.4-5.7,2.7
		C100.7,314.4,101.9,316.9,104.2,317.7L104.2,317.7z"/>
	<path class="st5" d="M99.5,331.1l16.7,5.9c2.3,0.8,4.8-0.4,5.7-2.7c0.8-2.3-0.4-4.8-2.7-5.7l-16.7-5.9c-2.3-0.8-4.8,0.4-5.7,2.7
		C95.9,327.8,97.1,330.3,99.5,331.1L99.5,331.1z"/>
	<path class="st5" d="M94.7,344.5l16.7,5.9c2.3,0.8,4.8-0.4,5.7-2.7c0.8-2.3-0.4-4.8-2.7-5.7l-16.7-5.9c-2.3-0.8-4.8,0.4-5.7,2.7
		C91.2,341.1,92.4,343.7,94.7,344.5z"/>
	<path class="st5" d="M74.9,307.4l16.7,5.9c2.3,0.8,4.8-0.4,5.7-2.7c0.8-2.3-0.4-4.8-2.7-5.7l0,0L77.9,299c-2.3-0.8-4.8,0.4-5.7,2.7
		C71.4,304,72.6,306.6,74.9,307.4z"/>
	<path class="st5" d="M70.2,320.8l16.7,5.9c2.3,0.8,4.8-0.4,5.7-2.7c0.8-2.3-0.4-4.8-2.7-5.7l0,0l-16.7-5.9
		c-2.3-0.8-4.8,0.4-5.7,2.7C66.7,317.4,67.9,319.9,70.2,320.8L70.2,320.8L70.2,320.8z"/>
	<path class="st5" d="M65.5,334.1l16.7,5.9c2.3,0.8,4.8-0.4,5.7-2.7c0.8-2.3-0.4-4.8-2.7-5.7l-16.7-5.9c-2.3-0.8-4.8,0.4-5.7,2.7
		C62,330.8,63.2,333.3,65.5,334.1z"/>
	
		<rect x="231.8" y="111.6" transform="matrix(0.3333 -0.9428 0.9428 0.3333 -125.1686 417.5044)" class="st24" width="1.8" height="371.3"/>
	<path class="st24" d="M36,384.4L331.9,489c15.2,5.4,31.9-2.6,37.3-17.8L420,327.4c5.4-15.2-2.6-31.9-17.8-37.3L106.3,185.4
		C91.1,180,74.4,188,69,203.2L18.1,347C12.8,362.3,20.7,379,36,384.4z M401.6,291.7c14.3,5.1,21.8,20.8,16.8,35.1l-50.8,143.8
		c-5.1,14.3-20.8,21.8-35.1,16.8L36.5,382.7c-14.3-5.1-21.8-20.8-16.8-35.1l50.8-143.8c5.1-14.3,20.8-21.8,35.1-16.8L401.6,291.7z"
		/>
</g>
</svg>
